/* XPM */
static char *c7b2bad1827e4993b3f540c70fc3427f4JrGPVcJ248Qbmny[] = {
/* columns rows colors chars-per-pixel */
"32 32 239 2 ",
"   c #38B764",
".  c #56C768",
"X  c #8AE16D",
"o  c #8CE26E",
"O  c #54C668",
"+  c #39B764",
"@  c #68A861",
"#  c #BF8D5C",
"$  c #C48B5B",
"%  c #64AA61",
"&  c #4DC267",
"*  c #74D66A",
"=  c #74D66B",
"-  c #4CC267",
";  c #5BAC62",
":  c #9A985D",
">  c #9D975D",
",  c #58AE62",
"<  c #40BB65",
"1  c #4FC367",
"2  c #50C367",
"3  c #4DC266",
"4  c #3FBB65",
"5  c #44B363",
"6  c #5AAD62",
"7  c #43B464",
"8  c #4EC267",
"9  c #75D76B",
"0  c #77D86B",
"q  c #4CC166",
"w  c #75D66B",
"e  c #77D76B",
"r  c #45B363",
"t  c #5CAC62",
"y  c #6AA861",
"u  c #37B462",
"i  c #369D57",
"p  c #489356",
"a  c #5A955B",
"s  c #59955B",
"d  c #469456",
"f  c #369E57",
"g  c #9C985D",
"h  c #C18D5B",
"j  c #66A961",
"k  c #44B463",
"l  c #4BBE65",
"z  c #509C58",
"x  c #929667",
"c  c #DFBC8B",
"v  c #FBD29C",
"b  c #FFD59E",
"n  c #FBD29B",
"m  c #DCBA89",
"M  c #8C9466",
"N  c #409656",
"B  c #37B463",
"V  c #43B463",
"C  c #8AA360",
"Z  c #CD975F",
"A  c #F4915F",
"S  c #C68B5B",
"D  c #A0965D",
"F  c #5DAC62",
"G  c #4AB25F",
"H  c #889661",
"J  c #F1CA96",
"K  c #EFC995",
"L  c #758E5E",
"P  c #38AA5E",
"I  c #A2965D",
"U  c #D39760",
"Y  c #EDAE69",
"T  c #FCBB6F",
"R  c #BD8E5C",
"E  c #36AB5E",
"W  c #979E6C",
"Q  c #FAD19B",
"!  c #F9D09A",
"~  c #929D6A",
"^  c #4BB861",
"/  c #59AD62",
"(  c #CC9860",
")  c #EAAC68",
"_  c #FBB76D",
"`  c #658E5A",
"'  c #F6CD98",
"]  c #F3CB97",
"[  c #769A5C",
"{  c #CD9860",
"}  c #F3925F",
"|  c #35A55B",
" . c #D3B686",
".. c #CFB382",
"X. c #46B15E",
"o. c #C08D5B",
"O. c #4E9458",
"+. c #FCD39C",
"@. c #4B9557",
"#. c #65AA62",
"$. c #6E935F",
"%. c #68945E",
"&. c #8BE16D",
"*. c #789461",
"=. c #729560",
"-. c #76D76B",
";. c #4EC367",
":. c #6C935E",
">. c #65945D",
",. c #52C568",
"<. c #4BC166",
"1. c #479457",
"2. c #F8CF9A",
"3. c #429556",
"4. c #41AB5E",
"5. c #C7AE7F",
"6. c #BCAA7A",
"7. c #35AC5E",
"8. c #5BBB67",
"9. c #91965D",
"0. c #EFC894",
"q. c #EBC692",
"w. c #569057",
"e. c #A3BF6B",
"r. c #A49B68",
"t. c #F4CC97",
"y. c #F2CB96",
"u. c #8E9964",
"i. c #5FB966",
"p. c #45B865",
"a. c #44B865",
"s. c #5DBB68",
"d. c #58B363",
"f. c #658F5A",
"g. c #DFBE8C",
"h. c #FED59E",
"j. c #FED49E",
"k. c #DBBB8A",
"l. c #77925B",
"z. c #A4BC6A",
"x. c #ABC46E",
"c. c #5CBB67",
"v. c #38B563",
"b. c #4C9A56",
"n. c #6D776F",
"m. c #B6A180",
"M. c #E1BD8E",
"N. c #F6CD99",
"B. c #F5CD98",
"V. c #E0BC8D",
"C. c #B3A080",
"Z. c #6C7663",
"A. c #3E9C58",
"S. c #5DB966",
"D. c #A3C36D",
"F. c #A7C36E",
"G. c #34A75B",
"H. c #358D54",
"J. c #015793",
"K. c #075F9D",
"L. c #1A6291",
"P. c #29648A",
"I. c #28648B",
"U. c #1A6191",
"Y. c #075E9B",
"T. c #044E77",
"R. c #309B56",
"E. c #42AF60",
"W. c #5EBB68",
"Q. c #5FBC68",
"!. c #30A05A",
"~. c #064B6B",
"^. c #134440",
"/. c #01426E",
"(. c #00538E",
"). c #005A9A",
"_. c #005C9E",
"`. c #005C9D",
"'. c #005998",
"]. c #004F88",
"[. c #043B58",
"{. c #08485C",
"}. c #12605F",
"|. c #37B262",
" X c #36B060",
".X c #1F7555",
"XX c #449F58",
"oX c #498149",
"OX c #082B3C",
"+X c #003459",
"@X c #003861",
"#X c #003860",
"$X c #003051",
"%X c #062C35",
"&X c #26804A",
"*X c #227E54",
"=X c #268757",
"-X c #38B663",
";X c #69C462",
":X c #264221",
">X c #060D07",
",X c #020503",
"<X c #020403",
"1X c #040C07",
"2X c #133C21",
"3X c #34AB5D",
"4X c #4DB861",
"5X c #3D9650",
"6X c #2F7E44",
"7X c #297B43",
"8X c #2C8F4E",
"9X c #91E56E",
"0X c #6BD16A",
"qX c #56C668",
"wX c #9E975D",
"eX c #A0EC6F",
"rX c #94E66E",
"tX c #8DE36E",
"yX c #6AD16A",
"uX c #92E66E",
"iX c #8DA260",
"pX c #CE9860",
"aX c #D29860",
"sX c #9FEC6F",
"dX c #A7F070",
"fX c #92E56E",
"gX c #A0ED6F",
"hX c #CF9860",
"jX c #ECAD69",
"kX c #CE975F",
"lX c #6AD169",
"zX c #67A961",
"xX c #C28C5B",
"cX c #F3935F",
"vX c #FBB86D",
"bX c #FBBA6E",
"nX c #F2905E",
"mX c #BE8D5B",
"MX c #55C667",
/* pixels */
"  . X o O +               @ # $ %                               ",
"  & * = -                 ; : > ,         < 1 2 <               ",
"  < 3 & 4                 5 6 ; 7         8 9 0 q               ",
"                                          8 w e q               ",
"                                          4 q 3 4               ",
"                                                          r t y ",
"                        u i p a s d f u                 + t g h ",
"j 6 k             < l z x c v b b n m M N B           V 6 C Z A ",
"S D F             G H J b b b b b b b b K L P       + t I U Y T ",
"R : ;           E W Q b b b b b b b b b b ! ~ ^ <   + / g ( ) _ ",
"j 6 5           ` ' b b b b b b b b b b b b ] [ q     k ; C { } ",
"              |  .b b b b b b b b b b b b b b ..X.        ; g o.",
"              O.+.b b b b b b b b b b b b b b v @.        k / #.",
". 8 <         $.b b b b b b b b b b b b b b b b %.            + ",
"&.w 8         *.b b b b b b b b b b b b b b b b =.              ",
"o -.;.        :.b b b b b b b b b b b b b b b b >.              ",
",.<.4         1.Q b b b b b b b b b b b b b b 2.3.              ",
"              4.5.b b b b b b b b b b b b b b 6.7.              ",
"              8.9.0.b b b b b b b b b b b b q.w.                ",
"              8.e.r.t.b b b b b b b b b b y.u.i.p.              ",
"              a.s.d.f.g.h.b b b b b b j.k.l.z.x.c.              ",
"                + + v.b.n.m.M.N.B.V.C.Z.A.S.D.F.8.    < ;.;.<   ",
"                    G.H.J.K.L.P.I.U.Y.T.R.E.W.Q.a.    & -.w 8   ",
"                  !.~.^./.(.)._.`.'.].[.{.}.|.        3 e -.;.  ",
"                   X.XXXoXOX+X@X#X$X%X&X*X=X-X        4 <.<.4   ",
"                      - ;X:X>X,X<X1X2X3X              < 1 1 <   ",
"                      4 & 4X5X6X7X8X7.                3 e -.1 + ",
"      4 8 3 <             r ; F V                   + O o 9X0XqX",
"    + & 0 -.1           + t wXI 6                   + O o eXrXtX",
"  < 1 yXuXX qX        r F iXpXaXC t r                 3 w 9XsXdX",
"  8 -.fXgX&..       + 6 wXhXjXY kXg t                 4 8 lX9XdX",
"  . &.dXdX&..       + zXxXcXvXbXnXmX@                     MXX dX"
};
