/* XPM */
static char *_0ce80a585294f029d1b7fc40e56147bXHYjgWQz4BtUqjLU[] = {
/* columns rows colors chars-per-pixel */
"32 32 201 2 ",
"   c #38B764",
".  c #56C768",
"X  c #8AE16D",
"o  c #8CE26E",
"O  c #54C668",
"+  c #39B764",
"@  c #68A861",
"#  c #BF8D5C",
"$  c #C48B5B",
"%  c #64AA61",
"&  c #4EC267",
"*  c #74D66B",
"=  c #75D76B",
"-  c #4DC267",
";  c #5BAC62",
":  c #9B985D",
">  c #9F975D",
",  c #58AD62",
"<  c #40BB65",
"1  c #4FC367",
"2  c #3FBB65",
"3  c #44B363",
"4  c #5CAC62",
"5  c #44B464",
"6  c #77D76B",
"7  c #4CC167",
"8  c #78D86B",
"9  c #4CC166",
"0  c #4DC266",
"q  c #53C568",
"w  c #4BBE66",
"e  c #379C5B",
"r  c #2D8754",
"t  c #319559",
"y  c #37B363",
"u  c #43B463",
"i  c #59AD62",
"p  c #88A360",
"a  c #CD975F",
"s  c #F3915F",
"d  c #8DE36E",
"f  c #88DB6C",
"g  c #61A95D",
"h  c #527750",
"j  c #59634B",
"k  c #4D6F4E",
"l  c #338F57",
"z  c #36AE61",
"x  c #A1965D",
"c  c #D29760",
"v  c #EDAE69",
"b  c #FCBB6F",
"n  c #75D66B",
"m  c #91E56E",
"M  c #8FD368",
"N  c #435943",
"B  c #9C945A",
"V  c #E9D572",
"C  c #AEA360",
"Z  c #2E4B40",
"A  c #32995A",
"S  c #4EC367",
"D  c #56C668",
"F  c #5AAD62",
"G  c #9D975D",
"H  c #CE9860",
"J  c #EBAD68",
"K  c #FCB86E",
"L  c #69D16A",
"P  c #80C965",
"I  c #3D4C3D",
"U  c #A08345",
"Y  c #F5C452",
"T  c #B59348",
"R  c #2C3F3A",
"E  c #329659",
"W  c #76D76B",
"Q  c #8BE16D",
"!  c #44B463",
"~  c #8BA260",
"^  c #F3935F",
"/  c #68BD63",
"(  c #394B3E",
")  c #A39154",
"_  c #FADA6C",
"`  c #B9A35A",
"'  c #2F423C",
"]  c #429E5B",
"[  c #69D06A",
"{  c #92E66E",
"}  c #A0EC6F",
"|  c #93E66E",
" . c #C28C5B",
".. c #45AB5F",
"X. c #2F453D",
"o. c #A28D50",
"O. c #F9D465",
"+. c #B89F55",
"@. c #33443C",
"#. c #64B05E",
"$. c #92E56E",
"%. c #6AD16A",
"&. c #67A961",
"*. c #55C667",
"=. c #34A25D",
"-. c #29423B",
";. c #A08547",
":. c #F5C856",
">. c #B6964B",
",. c #34433B",
"<. c #75B860",
"1. c #33A25D",
"2. c #29433D",
"3. c #A5955A",
"4. c #FCE174",
"5. c #BAA960",
"6. c #35453D",
"7. c #38B664",
"8. c #8EE36E",
"9. c #28413B",
"0. c #9E8042",
"q. c #F2BE4E",
"w. c #B38F45",
"e. c #32423A",
"r. c #65B05E",
"t. c #37B563",
"y. c #263E39",
"u. c #8F5F31",
"i. c #DA8A33",
"p. c #A26A31",
"a. c #2C3B37",
"s. c #419E5B",
"d. c #37B262",
"f. c #45B965",
"g. c #61BC68",
"h. c #5FBC68",
"j. c #46B965",
"k. c #273E39",
"l. c #936533",
"z. c #DF9436",
"x. c #A67134",
"c. c #2B3B37",
"v. c #319659",
"b. c #38B564",
"n. c #5BBB67",
"m. c #A8C36E",
"M. c #A4C36D",
"N. c #5EBC68",
"B. c #273F3A",
"V. c #976E36",
"C. c #E6A23B",
"Z. c #AB7B37",
"A. c #2B3C38",
"S. c #38B463",
"D. c #AAC46E",
"F. c #A6C36D",
"G. c #2B4039",
"H. c #8D5A2F",
"J. c #D68230",
"K. c #9F642F",
"L. c #2A3A37",
"P. c #5DBB67",
"I. c #44B865",
"U. c #36473B",
"Y. c #997137",
"T. c #E9A73D",
"R. c #AD7F38",
"E. c #2B3D38",
"W. c #79C665",
"Q. c #3A483B",
"!. c #906131",
"~. c #DB8C34",
"^. c #A36C32",
"/. c #7AC665",
"(. c #926432",
"). c #DD9135",
"_. c #A56F33",
"`. c #7ECD67",
"'. c #506F48",
"]. c #86763E",
"[. c #BA913E",
"{. c #8D7A3D",
"}. c #2E5B43",
"|. c #339F5C",
" X c #8BE06D",
".X c #95DA6A",
"XX c #608850",
"oX c #3E553F",
"OX c #376D49",
"+X c #36A75F",
"@X c #38B563",
"#X c #89DF6D",
"$X c #7FD068",
"%X c #68BE63",
"&X c #46B361",
"*X c #56C667",
"=X c #4FC267",
"-X c #A0ED6F",
";X c #9FEC6F",
":X c #A7F070",
">X c #6BD16A",
/* pixels */
"  . X o O +               @ # $ %                               ",
"  & * = -                 ; : > ,         < & 1 2               ",
"  < - & 2                 3 ; 4 5         - * 6 7               ",
"                                          & = 8 9               ",
"                                          2 - 0 2               ",
"                                                          3 ; @ ",
"                                                          ; : # ",
"% , 5             2 7 q q w e r t y                   u i p a s ",
"$ > 4             1 6 d f g h j k l z               + ; x c v b ",
"# : ;             & n m M N B V C Z A < S D . 1 2   + F G H J K ",
"@ ; 3             < & L P I U Y T R E 0 W X Q 6 7     ! 4 ~ H ^ ",
"                    + - / ( ) _ ` ' ] [ { } | 8 9         4 G  .",
"                      2 ..X.o.O.+.@.#.{ } $.%.0 2         ! F &.",
"*.0 <                   =.-.;.:.>.,.<.} $.= S               + + ",
"X * 0                   1.2.3.4.5.6.<.| %.S <               7.  ",
"8.W S                   1.9.0.q.w.e.r.8 0                   t.  ",
"q 9 2                   1.y.u.i.p.a.s.9 2                   d.7.",
"              f.g.h.j.  1.k.l.z.x.c.v.                      z b.",
"7.            n.m.M.N.  =.B.V.C.Z.A.v.      + +             z S.",
"7.            n.D.F.h.2 ..G.H.J.K.L.v.    f.P.N.I.          7.7.",
"              I.N.P.f.- / U.Y.T.R.E.v.    h.F.D.n.            7.",
"                + + + O W.Q.!.~.^.L.v.    N.M.m.n.    2 & - < 7.",
"                    + O /.Q.(.)._.c.v.    j.h.g.f.    - = * & 7.",
"                    + O `.'.].[.{.}.|.                0 8 6 1   ",
"                    + O  X.XXXoXOX+X@X                2 9 7 2   ",
"                      - = #X$X%X&X7.                  < S & <   ",
"                      2 & *.*X=X2                     0 W = S + ",
"      2 - 0 <             ! F ; u                   + O o m %.O ",
"    + - 6 W S             4 G x i                   + O o -X| o ",
"  < & L { X D         ! 4 ~ H c p ; 3                 0 W $.;X:X",
"  & n m -XQ .       + F G H J v a : ;                 < 1 >Xm :X",
"  . Q :X:XQ .       + &. .^ K b s # @                     *.X :X"
};
