/* XPM */
static char *_d39eda11ec049c6e429096581da3ad67lsLNR8B0FX9OpWA[] = {
/* columns rows colors chars-per-pixel */
"32 32 146 2 ",
"   c #243C39",
".  c #303032",
"X  c #363834",
"o  c #42312F",
"O  c #403430",
"+  c #2F403A",
"@  c #2D4A3E",
"#  c #30443A",
"$  c #3E4D3B",
"%  c #484B37",
"&  c #424A3C",
"*  c #584131",
"=  c #51523B",
"-  c #5F5A3F",
";  c #6F5031",
":  c #745131",
">  c #795A34",
",  c #214B40",
"<  c #2A4C40",
"1  c #285644",
"2  c #245744",
"3  c #385A46",
"4  c #355744",
"5  c #266147",
"6  c #2F6A49",
"7  c #386544",
"8  c #376A4B",
"9  c #2A754E",
"0  c #2E794E",
"q  c #32774E",
"w  c #3A744E",
"e  c #434941",
"r  c #465F43",
"t  c #435542",
"y  c #605C44",
"u  c #5B6742",
"i  c #546B4D",
"p  c #53724D",
"a  c #557551",
"s  c #766540",
"d  c #7C7F54",
"f  c #935E2F",
"g  c #8D5C30",
"h  c #9F622E",
"j  c #886B39",
"k  c #836135",
"l  c #9A6430",
"z  c #926D37",
"x  c #AC672E",
"c  c #A47737",
"v  c #C5762F",
"b  c #80754D",
"n  c #8B7645",
"m  c #917741",
"M  c #2D8453",
"N  c #328653",
"B  c #329257",
"V  c #319759",
"C  c #329C5B",
"Z  c #3D9F5C",
"A  c #34A25D",
"S  c #36AD61",
"D  c #37B262",
"F  c #38B764",
"G  c #3FBB65",
"H  c #488250",
"J  c #4B8D56",
"K  c #528852",
"L  c #409F5B",
"P  c #4B995B",
"I  c #678252",
"U  c #748D59",
"Y  c #46A05B",
"T  c #4AA55D",
"R  c #5EA65B",
"E  c #6EAE5D",
"W  c #67AA5C",
"Q  c #6EB25F",
"!  c #5BAC62",
"~  c #44B463",
"^  c #41BB65",
"/  c #4BBB64",
"(  c #5DB766",
")  c #5BBA67",
"_  c #66AA61",
"`  c #68A861",
"'  c #72B760",
"]  c #75BE62",
"[  c #4DC267",
"{  c #54C467",
"}  c #55C668",
"|  c #71CD68",
" . c #6AD16A",
".. c #75D66B",
"X. c #78D86B",
"o. c #AA833C",
"O. c #C78434",
"+. c #CC8735",
"@. c #D18D36",
"#. c #D59137",
"$. c #DC9637",
"%. c #E39C39",
"&. c #E7A63C",
"*. c #E9A73D",
"=. c #E1A93F",
"-. c #EAAA3E",
";. c #968F59",
":. c #9E975D",
">. c #9C985D",
",. c #95955E",
"<. c #AF8D45",
"1. c #AF914B",
"2. c #BF8D5C",
"3. c #A2965C",
"4. c #A99E5F",
"5. c #8AA360",
"6. c #C38C5B",
"7. c #CD975F",
"8. c #F3925F",
"9. c #CDA348",
"0. c #D8AD4C",
"q. c #D7BB5F",
"w. c #DEBB59",
"e. c #E3AF45",
"r. c #EDB342",
"t. c #F0B541",
"y. c #F2BD4A",
"u. c #F1B946",
"i. c #CE9860",
"p. c #D29760",
"a. c #ECAE69",
"s. c #FCBA6F",
"d. c #8BE26D",
"f. c #92E56E",
"g. c #9FEC6F",
"h. c #A2ED6F",
"j. c #A7F070",
"k. c #F3C04E",
"l. c #EEC85E",
"z. c #E4C25F",
"x. c #F3C554",
"c. c #F5C856",
"v. c #D6C66F",
"b. c #DCCA71",
"n. c #EFCB61",
"m. c #E4C562",
/* pixels */
"F } d.d.} F F F F F F F F ` 2.6._ F F F F F F F F F F F F F F F ",
"F [ ....[ F F F F F F F F ! >.:.! F F F F ^ [ [ G F F F F F F F ",
"F ^ [ [ G F F F F F F F F ~ ! ! ~ F F F F [ ....[ F F F F F F F ",
"F F F F F F F F F F F F F F F F F F F F F [ ..X.[ F F F F F F F ",
"F F F F F F F F F F F F F F F F F F F F F G [ [ G F F F F F F F ",
"F F F F F F F F F F F F F F F F F F F F F F F F F F F F F ~ ! ` ",
"F F F F F F F F F F F F F F F F F F F F F F F F F F F F F ! >.2.",
"_ ! ~ F F F F F F G [ { { L N M M M C F F F F F F F F ~ ! 5.7.8.",
"6.:.! F F F F F F [ | ] ' p e e e e w V C D F F F F F ! 3.p.a.s.",
"2.>.! F F F F F F / R t & :.b.b.b.v.d + 4 T { [ G F F ! :.i.a.s.",
"` ! ~ F F F F F F N i 4.<.0.c.c.c.x.9.1.>.p Q ..[ F F ~ ! 5.i.8.",
"F F F F F F F D M a 3.l.u.t.t.t.t.t.t.y.z.;.I R [ F F F F ! :.6.",
"F F F F F F F D , b n.u.t.t.t.t.t.t.t.t.y.m.y 6 G F F F F ~ ! _ ",
"} [ ^ F F F D C 3 m r.t.t.t.t.t.t.t.t.t.t.e.s 8 A F F F F F F F ",
"d...[ F F F A 1 ,.w.r.t.t.t.t.t.t.t.t.t.t.r.q.d 5 S F F F F F F ",
"d...[ F F F A   1.k.t.t.t.t.t.t.t.t.t.t.t.t.x.n , S F F F F F F ",
"{ [ G F F F A   o.t.t.t.t.t.t.t.t.t.t.t.t.t.r.j , S F F F F F F ",
"F F F F F F A   c -.t.t.t.t.t.t.t.t.t.t.t.r.*.k , S F F F F F F ",
"F F F F F F A @ g #.r.t.t.t.t.t.t.t.t.t.t.r.+.; 2 S F F F F F F ",
"F F F F F F D P = z r.t.t.t.t.t.t.t.t.t.t.=.> r Z F F F F F F F ",
"F F F F F F F ~ < : $.r.t.t.t.t.t.t.t.t.-.@.* i ) F F F F F F F ",
"F F F F F F F D 9 = l $.%.*.t.t.t.t.*.%.@.g - U ) F F G [ [ ^ F ",
"F F F F F F F F D 0 % h x @.*.*.*.&.O.x f $ J ( ^ F F [ ....[ F ",
"F F F F F F F F F S N X X g v v v v : . # B D F F F F [ X...[ F ",
"F F F F F F F F F F S Y E u o o o O 7 B V D F F F F F G [ [ G F ",
"F F F F F F F F F F F [ ..W K H q 9 V F F F F F F F F ^ [ [ ^ F ",
"F F F F F F F F F F F G [ } } [ G F F F F F F F F F F [ ....[ F ",
"F F F G [ [ ^ F F F F F F ~ ! ! ~ F F F F F F F F F F } d.f. .} ",
"F F F [ ....[ F F F F F F ! :.3.! F F F F F F F F F F } d.h.f.d.",
"F ^ [  .f.d.} F F F F ~ ! 5.i.p.5.! ~ F F F F F F F F [ ..f.g.h.",
"F [ ..f.h.d.} F F F F ! :.i.a.a.7.>.! F F F F F F F F ^ [  .f.h.",
"F } d.j.j.d.} F F F F _ 6.8.s.s.8.2.` F F F F F F F F F F } d.j."
};
