/* XPM */
static char *_a02b42411ba481bd9c45d89dbaf6741CFKWNkuis2KCLPQR[] = {
/* columns rows colors chars-per-pixel */
"32 32 151 2 ",
"   c #2C3C38",
".  c #363332",
"X  c #543D2F",
"o  c #483830",
"O  c #423C33",
"+  c #254A3E",
"@  c #2A4B3D",
"#  c #38463A",
"$  c #4E4C3B",
"%  c #584231",
"&  c #45553E",
"*  c #664830",
"=  c #6F4D30",
"-  c #685335",
";  c #725433",
":  c #6C643D",
">  c #7A653D",
",  c #244F41",
"<  c #2E5D45",
"1  c #265A45",
"2  c #335041",
"3  c #296548",
"4  c #27694A",
"5  c #3B6744",
"6  c #2A774F",
"7  c #2D784F",
"8  c #32724D",
"9  c #2C7E51",
"0  c #464E42",
"q  c #455142",
"w  c #565647",
"e  c #5A5B49",
"r  c #675D42",
"t  c #4D6648",
"y  c #58664C",
"u  c #44714C",
"i  c #5A774E",
"p  c #67714F",
"a  c #637D50",
"s  c #767650",
"d  c #8E5B2F",
"f  c #835D33",
"g  c #A35F2C",
"h  c #8C6E39",
"j  c #A3602C",
"k  c #AC642C",
"l  c #BB6C2C",
"z  c #BA7D34",
"x  c #CF762B",
"c  c #C3702C",
"v  c #D17B2E",
"b  c #8E7743",
"n  c #2E8A55",
"m  c #2C8152",
"M  c #3B8353",
"N  c #378853",
"B  c #328653",
"V  c #3F9357",
"C  c #339659",
"Z  c #339C5B",
"A  c #34A65F",
"S  c #36AB60",
"D  c #3CAC60",
"F  c #37B262",
"G  c #38B764",
"H  c #3FBB65",
"J  c #449F5B",
"K  c #509958",
"L  c #679F59",
"P  c #42A65D",
"I  c #62AD5E",
"U  c #71B05E",
"Y  c #43AC61",
"T  c #5BAC62",
"R  c #44B463",
"E  c #42BA65",
"W  c #4DBD65",
"Q  c #5CBA67",
"!  c #5EBC68",
"~  c #5DB465",
"^  c #66AA61",
"/  c #68A861",
"(  c #63BB65",
")  c #4DC267",
"_  c #55C567",
"`  c #55C668",
"'  c #76C063",
"]  c #78C665",
"[  c #6AD16A",
"{  c #75D66B",
"}  c #78D86B",
"|  c #BA8337",
" . c #D5802F",
".. c #C68535",
"X. c #D78430",
"o. c #D88631",
"O. c #D88E38",
"+. c #D88A33",
"@. c #E39C39",
"#. c #D7A13E",
"$. c #E3A43C",
"%. c #EBAC3E",
"&. c #868258",
"*. c #8B8656",
"=. c #9E975D",
"-. c #9B985D",
";. c #BF8D5C",
":. c #A1965D",
">. c #B3A25C",
",. c #8AA360",
"<. c #9CB869",
"1. c #AFA867",
"2. c #A3BE6B",
"3. c #C38C5B",
"4. c #CD975F",
"5. c #E19F45",
"6. c #F3925F",
"7. c #D2A84A",
"8. c #EDB342",
"9. c #E5B247",
"0. c #F0B541",
"q. c #F2BD4B",
"w. c #F1BA47",
"e. c #CE9860",
"r. c #D29760",
"t. c #C9B968",
"y. c #C6BB6F",
"u. c #ECAE69",
"i. c #FCBA6F",
"p. c #8EDF6C",
"a. c #82D268",
"s. c #A9C36E",
"d. c #A5C36D",
"f. c #8BE16D",
"g. c #92E56E",
"h. c #9EEB6F",
"j. c #A0ED6F",
"k. c #A7F070",
"l. c #F4C14F",
"z. c #EAC35A",
"x. c #F4C95B",
"c. c #F4C453",
"v. c #D5C874",
"b. c #E8C560",
"n. c #F9D768",
"m. c #FAD86A",
"M. c #EBD674",
"N. c #EEDD7B",
"B. c #FBDE71",
"V. c #FAE47A",
"C. c #FFEC81",
/* pixels */
"G ` f.f.` G G G G G G G G / ;.3.^ G G G G G G G G G G G G G G G ",
"G ) { { ) G G G G G G G G T -.=.T G G G G E ) ) H G G G G G G G ",
"G E ) ) H G G G G G G G G R T T R G G G G ) { { ) G G G G G G G ",
"G G G G G S S F G G G G G G G G G G G G G ) { { ) G G G G G G G ",
"G G G G G G F G G G G G G G G G G G G G G H ) ) H G G G G G G G ",
"G G G G G G G G G G G G G G G G G G G G G G G G G G G G G R T / ",
"G G G G G G G G G G G G G G G G G G G G G G G G G G G G G T -.;.",
"^ T R G G G G G G H ) _ W N 7 6 6 m S G G G G G G G G R T ,.4.6.",
"3.=.T G G G G G G ) { a.L y e e e y M A G G G G G G G T :.r.u.i.",
";.-.T G G G G G G ) { U 0 y.N.N.M.t.q B ) ` ` ) H G G T =.e.u.i.",
"/ T R G G G G G G E W K 0 v.C.m.l.7.$ M { f.f.{ ) G G R T ,.e.6.",
"G G G G G G G G G G n t 1.N.n.l.0.9.>.i L h.g.} ) G G G G T =.3.",
"G G G G G G G G G F 4 w N.V.x.0.0.w.z.r i p.[ ) H G G G G R T ^ ",
"_ ) E G G G G G G C u &.V.B.c.0.0.0.9.b a I W G G G G G G G G G ",
"f.{ ) G G G G G F 1 s M.V.c.0.0.0.0.8.b.*.< D G G G G G G G G G ",
"f.{ ) G G G G G F , > x.V.q.0.0.0.0.0.w.b + A G G G G G G G G G ",
"_ ) H G G G G G F , = O.5.8.0.0.0.0.0.8.h + A G G G G G G G G G ",
"G G G G G G G E ~ 2 ; +. .%.0.0.0.0.8.$.f + A G G G G G G G G G ",
"G G G G G G G Q 2.p : | v @.%.0.0.0.8.z - 3 S G G G G G G G G G ",
"G G G G G G G Q s.<.u X c v @.0.0.8.$.- < Y Q ! E G G G G G G G ",
"G G G G G G G E ! Q 8 o l x @.8.0.%...% 3 Q d.s.Q G G G G G G G ",
"G G G G G G G G G G Z u * l X.@.0.#.; 5 Z Q d.s.Q G G H ) ) E G ",
"G G G G G G G G G G G V . k x o.@...O 9 G E ! ( E G G ) { { ) G ",
"G G G G G G G G G G G J & d g j j d # n G G G G G G G ) } { ) G ",
"G G G G G G G G G G G _ ' t # #   @ C F G G G G G G G H ) ) H G ",
"G G G G G G G G G G G ) { ] ' ( P A F G G G G G G G G E ) ) E G ",
"G G G G G G G G G G G H ) _ _ ) H G G G G G G G G G G ) { { ) G ",
"G G G H ) ) E G G G G G G R T T R G G G G G G G G G G ` f.g.[ ` ",
"G G G ) { { ) G G G G G G T =.:.T G G G G G G G G G G ` f.j.g.f.",
"G E ) [ g.f.` G G G G R T ,.e.r.,.T R G G G G G G G G ) { g.h.k.",
"G ) { g.j.f.` G G G G T =.e.u.u.4.-.T G G G G G G G G E ) [ g.k.",
"G ` f.k.k.f.` G G G G ^ 3.6.i.i.6.;./ G G G G G G G G G G _ f.k."
};
