/* XPM */
static char *_245101a2a3443e4d14e72bc432abf41BWVfKgPTBx8K68Yi[] = {
/* columns rows colors chars-per-pixel */
"32 32 140 2 ",
"   c #2D3D39",
".  c #353332",
"X  c #383A36",
"o  c #333F38",
"O  c #37533E",
"+  c #5F4F36",
"@  c #5E5036",
"#  c #545A3B",
"$  c #635336",
"%  c #695737",
"&  c #715936",
"*  c #6B683D",
"=  c #244C40",
"-  c #394A40",
";  c #365F45",
":  c #266649",
">  c #2D6648",
",  c #296849",
"<  c #28724D",
"1  c #367E4F",
"2  c #2B7D50",
"3  c #387D50",
"4  c #366847",
"5  c #435E43",
"6  c #575F44",
"7  c #5A5A48",
"8  c #496542",
"9  c #586648",
"0  c #40734B",
"q  c #547D4D",
"w  c #4D7750",
"e  c #657948",
"r  c #8B5E30",
"t  c #9F652F",
"y  c #846A39",
"u  c #896D39",
"i  c #9D6832",
"p  c #937138",
"a  c #A3622D",
"s  c #BC7932",
"d  c #A77A38",
"f  c #CF752B",
"g  c #C5752E",
"h  c #D37C2E",
"j  c #2D8654",
"k  c #2E8A55",
"l  c #398755",
"z  c #308F57",
"x  c #368454",
"c  c #37995A",
"v  c #389A5A",
"b  c #35A45E",
"n  c #38A25D",
"m  c #35A95F",
"M  c #36AC60",
"N  c #3CAD60",
"B  c #37B262",
"V  c #38B764",
"C  c #3FBB65",
"Z  c #52975B",
"A  c #6C9E57",
"S  c #42A75E",
"D  c #48AA5F",
"F  c #62AF5E",
"G  c #5BAC62",
"H  c #44B463",
"J  c #4CB663",
"K  c #42BA65",
"L  c #5CBA66",
"P  c #5EBC68",
"I  c #66AA61",
"U  c #68A861",
"Y  c #61BC68",
"T  c #79BB60",
"R  c #4DC267",
"E  c #55C667",
"W  c #55C668",
"Q  c #6CC565",
"!  c #6AD16A",
"~  c #75D66B",
"^  c #77D86B",
"/  c #78D86B",
"(  c #A0803C",
")  c #D5812F",
"_  c #C08135",
"`  c #D98732",
"'  c #DB8D33",
"]  c #C6983E",
"[  c #DF9236",
"{  c #DF993E",
"}  c #D79A3B",
"|  c #DAA13E",
" . c #EDB03F",
".. c #988040",
"X. c #928B58",
"o. c #9E975D",
"O. c #9B985D",
"+. c #BF8D5C",
"@. c #A1965D",
"#. c #B39C57",
"$. c #8AA360",
"%. c #C09C48",
"&. c #C38C5B",
"*. c #CD975F",
"=. c #F3925F",
"-. c #DFA941",
";. c #D0A549",
":. c #C5A552",
">. c #E6A746",
",. c #E2AB40",
"<. c #EDB241",
"1. c #F0B642",
"2. c #F1B845",
"3. c #F2BE4E",
"4. c #CE9860",
"5. c #D29760",
"6. c #C7B869",
"7. c #ECAE69",
"8. c #FCBA6F",
"9. c #83D76A",
"0. c #86DA6B",
"q. c #90D067",
"w. c #A5C36D",
"e. c #A9C46E",
"r. c #8BE16D",
"t. c #92E56E",
"y. c #9FEB6F",
"u. c #99E26C",
"i. c #A1ED6F",
"p. c #A7F070",
"a. c #F5C857",
"s. c #D0C471",
"d. c #E0C161",
"f. c #F7D369",
"g. c #FAD96C",
"h. c #EDDD7D",
"j. c #F5DD74",
"k. c #FBDE73",
"l. c #FCE276",
"z. c #FFED82",
/* pixels */
"V E r.r.E V V V V V V V V U +.&.I V V V V V V V V V V V V V V V ",
"V R ~ ~ R V V V V V V V V G O.o.G V V V V K R R C V V V V V V V ",
"V K R R C V V V V V V V V H G G H V V V V R ~ ~ R V V V V V V V ",
"M B V V V V V V V V V V V V V V V V V V V R ~ ^ R V V V V V V V ",
"B V V V V V V V V V V V V V V V V V V V V C R R C V V V V V V V ",
"V V V V V V V V V V V V V V V V V V V V V V V V V V V V V H G U ",
"V V V V V V V V V V V V V V V V V V V V V V V V V V V V V G O.+.",
"I G H V V V V V V C R W W R c < 2 M V V V V V V V V V H G $.*.=.",
"&.o.G V V V V V V R ~ r.r.F w 7 9 x m V V V V V V V V G @.5.7.8.",
"+.O.G V V V V V V R ~ r.q.9 X.h.s.6 1 N R E E R C V V G o.4.7.8.",
"U G H V V V V V V K R L 5 ..d.z.j.%.# 3 ~ r.r.~ R V V H G $.4.=.",
"V V V V V V V V V V V S   #.l.l.a.-.+ 0 t.i.t./ R V V V V G o.&.",
"V V V V V V V V V V V n   #.l.k.2.-.$ q y.t.! R C V V V V H G I ",
"E R K V V V V V V V m x 9 :.g.k.2.,.u e T ~ R V V V V V V V V V ",
"r.~ R V V V V V V V k - 6.j.k.f.2.<.-.y ; J K V V V V V V V V V ",
"r.~ R V V V V V V V j X ;.3.>.{ <.1.<.y = M V V V V V V V V V V ",
"W R C V V V V V V V j . s ' ) ` <.1.<.y = M V V V V V V V V V V ",
"V V V V V V V K Y L l . _ [ ` ` <.1.<.y = M V V V V V V V V V V ",
"V V V V V V V L e.w.Z O ( } ' ` <.<.] * , M V V V V V V V V V V ",
"V V V V V V V L e.w.L v o t h ` <.,.% > M K L P K V V V V V V V ",
"V V V V V V V K P L K S   d ' `  .-.+ : B P w.e.L V V V V V B B ",
"V V V V V V V V V V V D   i ) h [ | @ : B P w.e.L V V C R R C M ",
"V V V V V V V V V V V J q & a f g p 8 k V K P Y K V V R ~ ~ R M ",
"V V V V V V V V V V V E 9.q % a r O z V V V V V V V V R / ~ R M ",
"V V V V V V V V V V V E r.u.A 5 4 n B V V V V V V V V C R R K V ",
"V V V V V V V V V V V R ~ r.9.Q H V V V V V V V V V V K R R K V ",
"V V V V V V V V V V V C R E E R C V V V V V V V V V V R ~ ~ R V ",
"V V V C R R K V V V V V V H G G H V V V V V V V V V V E r.t.! E ",
"V V V R ~ ~ R V V V V V V G o.@.G V V V V V V V V V V E r.i.t.0.",
"V K R ! t.r.E V V V V H G $.4.5.$.G H V V V V V V V V R ~ t.y.q.",
"V R ~ t.i.r.E V V V V G o.4.7.7.*.O.G V V V V V V V V K R ! t.i.",
"V E r.p.p.r.E V V V V I &.=.8.8.=.+.U V V V V V V V V V V E r.p."
};
