/* XPM */
static char *fd1912a184e846acc82145e061158e505KlrFVYov9wNoCRW[] = {
/* columns rows colors chars-per-pixel */
"32 32 149 2 ",
"   c #3E3330",
".  c #333F3D",
"X  c #333935",
"o  c #413330",
"O  c #2A413B",
"+  c #32433D",
"@  c #3A4F3C",
"#  c #4A4134",
"$  c #5E4230",
"%  c #544A38",
"&  c #4B573F",
"*  c #5F5537",
"=  c #52583A",
"-  c #7F552F",
";  c #634B32",
":  c #6C4D31",
">  c #3D4E41",
",  c #255D46",
"<  c #2D5F47",
"1  c #2B5644",
"2  c #335C46",
"3  c #385A40",
"4  c #387C4F",
"5  c #38744B",
"6  c #2C7C51",
"7  c #377F50",
"8  c #27684A",
"9  c #4D4E40",
"0  c #4C5144",
"q  c #695D40",
"w  c #5E694A",
"e  c #427E4F",
"r  c #507650",
"t  c #60604A",
"y  c #65724F",
"u  c #77704D",
"i  c #7B7E56",
"p  c #975C2D",
"a  c #835831",
"s  c #8D6836",
"d  c #9E6B33",
"f  c #987037",
"g  c #9D7A3A",
"h  c #B56C2E",
"j  c #BD6D2C",
"k  c #BF702D",
"l  c #C2732E",
"z  c #D0772C",
"x  c #856E40",
"c  c #308F57",
"v  c #378552",
"b  c #2F9057",
"n  c #329157",
"m  c #319559",
"M  c #339B5B",
"N  c #34A35E",
"B  c #3CA05C",
"V  c #36AE61",
"C  c #37B262",
"Z  c #38B764",
"A  c #3FBB65",
"S  c #518352",
"D  c #4F9055",
"F  c #439E5B",
"G  c #5F9D58",
"H  c #5B9656",
"J  c #679F58",
"K  c #649455",
"L  c #40A35E",
"P  c #6DA45A",
"I  c #5BAC62",
"U  c #55A560",
"Y  c #44B363",
"T  c #42BA65",
"R  c #4EB963",
"E  c #5CBB67",
"W  c #5FBC68",
"Q  c #59B264",
"!  c #66AA61",
"~  c #68A861",
"^  c #61BC68",
"/  c #4DC267",
"(  c #55C667",
")  c #55C668",
"_  c #6FC967",
"`  c #6AC465",
"'  c #6AD16A",
"]  c #76D76B",
"[  c #78D86B",
"{  c #D6812F",
"}  c #D38030",
"|  c #DA8B33",
" . c #CC9039",
".. c #D49037",
"X. c #DD9637",
"o. c #D59A3B",
"O. c #E49C39",
"+. c #E8A53C",
"@. c #E8A93E",
"#. c #93824D",
"$. c #869C5F",
"%. c #9E975D",
"&. c #9B985D",
"*. c #858A59",
"=. c #A1894B",
"-. c #BF8D5C",
";. c #A1965D",
":. c #9B9B62",
">. c #8AA360",
",. c #95AF66",
"<. c #A4BE6C",
"1. c #BEB36B",
"2. c #DC9C40",
"3. c #C38C5B",
"4. c #CD975F",
"5. c #F3925F",
"6. c #D7B659",
"7. c #E4AE43",
"8. c #EEB342",
"9. c #EFB749",
"0. c #F0B541",
"q. c #F2BB48",
"w. c #E6B957",
"e. c #CE9860",
"r. c #D29760",
"t. c #CBBE6F",
"y. c #CCBF70",
"u. c #ECAE69",
"i. c #FCBA6F",
"p. c #80C765",
"a. c #86D86B",
"s. c #A5C36D",
"d. c #A9C46E",
"f. c #8BE16D",
"g. c #92E56E",
"h. c #9FEC6F",
"j. c #A0ED6F",
"k. c #A7F070",
"l. c #F4C453",
"z. c #F7CD5D",
"x. c #CCC071",
"c. c #DACD76",
"v. c #EECC63",
"b. c #F0CD63",
"n. c #F8D060",
"m. c #E5D679",
"M. c #FCE275",
"N. c #FBE67C",
"B. c #FEED82",
/* pixels */
"Z ) f.f.) Z Z Z Z Z Z Z Z ~ -.3.! Z Z Z Z Z Z Z Z Z Z Z Z Z Z Z ",
"Z / ] ] / Z Z Z Z Z Z Z Z I &.%.I Z Z Z Z T / / A Z Z Z Z Z Z Z ",
"Z T / / A Z Z Z Z Z Z Z Z Y I I Y Z Z Z Z / ] ] / Z Z Z Z Z Z Z ",
"Z Z Z Z Z Z Z Z Z Z Z Z Z Z Z Z Z Z Z Z Z / ] [ / Z Z Z Z Z Z Z ",
"Z Z Z Z Z Z Z Z Z Z Z Z Z Z Z Z Z Z Z Z Z A / / A Z Z Z Z Z Z Z ",
"Z Z Z Z Z Z Z Z Z Z Z Z Z Z Z Z Z Z Z Z Z Z Z Z Z Z Z Z Z Y I ~ ",
"Z Z Z Z Z Z Z Z Z Z Z Z Z Z Z Z Z Z Z Z Z Z Z Z Z Z Z Z Z I &.-.",
"! I Y Z Z Z Z Z Z A / ) R B M m m M C Z Z Z Z Z Z Z Z Y I >.4.5.",
"3.%.I Z Z Z Z Z Z / ] a.P > . . . 2 M C Z Z Z Z Z Z Z I ;.r.u.i.",
"-.&.I Z Z Z Z Z Z / ] J w 1.t.y.x.:.2 B / ) ) / A Z Z I %.e.u.i.",
"~ I Y Z Z Z Z Z Z T / e % w.z.M.B.1.+ F ] f.f.] / Z Z Y I >.e.5.",
"Z Z Z Z Z Z Z Z Z C c r #.7.0.z.M.c.i S p.h.g.[ / Z Z Z Z I %.3.",
"Z Z Z Z Z Z Z Z Z V , u v.q.0.0.n.B.c.0 P g.' / A Z Z Z Z Y I ! ",
"( / T Z Z Z Z Z Z N 2 x 9.0.0.0.z.N.m.t K _ / Z Z Z Z Z Z Z Z Z ",
"f.] / Z Z Z Z Z N < *.6.8.0.0.0.q.z.N.t.y 4 A Z Z Z Z Z Z Z Z Z ",
"f.] / Z Z Z Z Z N O =.l.0.0.0.0.0.l.M.b.q , C Z Z Z Z Z Z Z Z Z ",
") / A Z Z Z Z Z N O g 0.0.0.0.0.0.9.w.2.; , C Z Z Z Z Z Z Z Z Z ",
"Z Z Z Z Z Z Z T U + f @.0.0.0.0.0.+.} } $ , C Z Z Z Z Z Z Z Z Z ",
"Z Z Z Z Z Z Z E ,.9 a ..8.0.0.0.8.O.}  .* 8 C Z Z Z Z Z Z Z Z Z ",
"Z Z Z Z Z Z Z E <.$.& s 8.0.0.0.O.{ k ; 5 L E W T Z Z Z Z Z Z Z ",
"Z Z Z Z Z Z Z T W Q 1 : X.8.0.0.O.z h   6 W s.d.E Z Z Z Z Z Z Z ",
"Z Z Z Z Z Z Z Z Z C 6 = d @.0.+.| j - 3 m E s.d.E Z Z A / / T Z ",
"Z Z Z Z Z Z Z Z Z Z C 5 % o.+.| z p X n Z T W ^ T Z Z / ] ] / Z ",
"Z Z Z Z Z Z Z Z Z Z Z 7 # h l l j p O M Z Z Z Z Z Z Z / [ ] / Z ",
"Z Z Z Z Z Z Z Z Z Z Z R K # o     @ n C Z Z Z Z Z Z Z A / / A Z ",
"Z Z Z Z Z Z Z Z Z Z Z / ` G H D v b C Z Z Z Z Z Z Z Z T / / T Z ",
"Z Z Z Z Z Z Z Z Z Z Z A / ( ( / A Z Z Z Z Z Z Z Z Z Z / ] ] / Z ",
"Z Z Z A / / T Z Z Z Z Z Z Y I I Y Z Z Z Z Z Z Z Z Z Z ) f.g.' ) ",
"Z Z Z / ] ] / Z Z Z Z Z Z I %.;.I Z Z Z Z Z Z Z Z Z Z ) f.j.g.f.",
"Z T / ' g.f.) Z Z Z Z Y I >.e.r.>.I Y Z Z Z Z Z Z Z Z / ] g.h.k.",
"Z / ] g.j.f.) Z Z Z Z I %.e.u.u.4.&.I Z Z Z Z Z Z Z Z T / ' g.k.",
"Z ) f.k.k.f.) Z Z Z Z ! 3.5.i.i.5.-.~ Z Z Z Z Z Z Z Z Z Z ( f.k."
};
