/* XPM */
static char *c1cccab01950441eb7bba0a02b852a47VZNxdGHOlOrQz3Sj[] = {
/* columns rows colors chars-per-pixel */
"32 32 250 2 ",
"   c #38B764",
".  c #56C768",
"X  c #8AE16D",
"o  c #8CE26E",
"O  c #54C668",
"+  c #39B764",
"@  c #68A861",
"#  c #BF8D5C",
"$  c #C48B5B",
"%  c #64AA61",
"&  c #4EC267",
"*  c #74D66B",
"=  c #75D76B",
"-  c #4DC267",
";  c #5BAC62",
":  c #9B985D",
">  c #9F975D",
",  c #58AD62",
"<  c #40BB65",
"1  c #4FC367",
"2  c #3FBB65",
"3  c #44B363",
"4  c #5CAC62",
"5  c #44B464",
"6  c #77D76B",
"7  c #4CC167",
"8  c #38B664",
"9  c #78D86B",
"0  c #4CC166",
"q  c #37B363",
"w  c #35A95F",
"e  c #4DC266",
"r  c #38B563",
"t  c #53C568",
"y  c #4ABB64",
"u  c #338B55",
"i  c #29754E",
"p  c #2F8D56",
"a  c #37B463",
"s  c #43B463",
"d  c #59AD62",
"f  c #88A360",
"g  c #CD975F",
"h  c #F3915F",
"j  c #8DE36E",
"k  c #85D76A",
"l  c #5EA05A",
"z  c #546B4D",
"x  c #5A5A49",
"c  c #4A6B4D",
"v  c #329057",
"b  c #37B062",
"n  c #A1965D",
"m  c #D29760",
"M  c #EDAE69",
"N  c #FCBB6F",
"B  c #75D66B",
"V  c #8BD96A",
"C  c #7CB15C",
"Z  c #5B6343",
"A  c #B9AF68",
"S  c #EEDE7D",
"D  c #ADA463",
"F  c #425A41",
"G  c #349156",
"H  c #3EB362",
"J  c #4EC367",
"K  c #56C668",
"L  c #5AAD62",
"P  c #9D975D",
"I  c #CE9860",
"U  c #EBAD68",
"Y  c #FCB86E",
"T  c #4EC266",
"R  c #509C59",
"E  c #4F593E",
"W  c #B59243",
"Q  c #EDD26C",
"!  c #FFED81",
"~  c #EACF6B",
"^  c #A48843",
"/  c #38523E",
"(  c #429C5A",
")  c #76D76B",
"_  c #8BE16D",
"`  c #44B463",
"'  c #8BA260",
"]  c #F3935F",
"[  c #368553",
"{  c #423F35",
"}  c #D1A141",
"|  c #F4C452",
" . c #FADC6F",
".. c #FDE77B",
"X. c #CAB25F",
"o. c #3D453D",
"O. c #539D59",
"+. c #92E66E",
"@. c #A0EC6F",
"#. c #93E66E",
"$. c #C28C5B",
"%. c #2F8152",
"&. c #413E35",
"*. c #D19F3F",
"=. c #F0B642",
"-. c #F8D364",
";. c #FDE478",
":. c #C8AD5B",
">. c #41463C",
",. c #6FAC5C",
"<. c #92E56E",
"1. c #6AD16A",
"2. c #67A961",
"3. c #55C667",
"4. c #339E5C",
"5. c #3B7249",
"6. c #715F38",
"7. c #DAA53F",
"8. c #FCE073",
"9. c #D4B155",
"0. c #73704B",
"q. c #6F9757",
"w. c #82CA65",
"e. c #37B263",
"r. c #286B4A",
"t. c #5C5538",
"y. c #D6A33F",
"u. c #EDB341",
"i. c #F5CB5E",
"p. c #FADF76",
"a. c #F7DE73",
"s. c #D8C66D",
"d. c #5B5F47",
"f. c #448351",
"g. c #4EC166",
"h. c #8EE36E",
"j. c #37B262",
"k. c #266248",
"l. c #625036",
"z. c #E6AE40",
"x. c #F0B541",
"c. c #F0B441",
"v. c #E4A03F",
"b. c #E29F43",
"n. c #F1BC4D",
"m. c #DFB04B",
"M. c #554B38",
"N. c #30724C",
"B. c #EFB441",
"V. c #DF9436",
"C. c #D37D2E",
"Z. c #D98932",
"A. c #C98032",
"S. c #4E3C31",
"D. c #2A6F4C",
"F. c #45B965",
"G. c #61BC68",
"H. c #5DB666",
"J. c #2E6348",
"K. c #D5812F",
"L. c #DE9236",
"P. c #CE8935",
"I. c #4F3F32",
"U. c #286E4C",
"Y. c #5BBB67",
"T. c #A8C36E",
"R. c #A1BF6C",
"E. c #477C51",
"W. c #535D3D",
"Q. c #BA903D",
"!. c #E8AF40",
"~. c #D88631",
"^. c #DB9B3B",
"/. c #AF873C",
"(. c #49593D",
"). c #2C8252",
"_. c #38B564",
"`. c #AAC46E",
"'. c #A5C36D",
"]. c #5CB565",
"[. c #337E50",
"{. c #4D4736",
"}. c #D3A13F",
"|. c #D27A2D",
" X c #B06D30",
".X c #413E34",
"XX c #318553",
"oX c #45B865",
"OX c #5DBB67",
"+X c #5EBC68",
"@X c #44B865",
"#X c #EFB340",
"$X c #DE9336",
"%X c #D98732",
"&X c #BB8638",
"*X c #383C35",
"=X c #2E8A55",
"-X c #5FBC68",
";X c #A6C36D",
":X c #3A8753",
">X c #434035",
",X c #CE9B3D",
"<X c #E19737",
"1X c #D5802F",
"2X c #AF7232",
"3X c #363834",
"4X c #A4C36D",
"5X c #45A25B",
"6X c #577347",
"7X c #8E723A",
"8X c #BD7530",
"9X c #CF752B",
"0X c #B2672C",
"qX c #705332",
"wX c #346244",
"eX c #329D5B",
"rX c #46B965",
"tX c #54C567",
"yX c #77C263",
"uX c #4E6343",
"iX c #815831",
"pX c #A35F2C",
"aX c #745432",
"sX c #2B5A43",
"dX c #34A35D",
"fX c #8ADF6D",
"gX c #90D267",
"hX c #516D47",
"jX c #323C37",
"kX c #336546",
"lX c #36A95F",
"zX c #87DE6C",
"xX c #79C665",
"cX c #62B460",
"vX c #44AD60",
"bX c #56C667",
"nX c #4FC266",
"mX c #3FBA65",
"MX c #57A65F",
"NX c #58A55F",
"BX c #42AF62",
"VX c #91E56E",
"CX c #9C965D",
"ZX c #A0955D",
"AX c #59AC62",
"SX c #A0ED6F",
"DX c #69D16A",
"FX c #9FEC6F",
"GX c #A7F070",
"HX c #6BD16A",
/* pixels */
"  . X o O +               @ # $ %                               ",
"  & * = -                 ; : > ,         < & 1 2               ",
"  < - & 2                 3 ; 4 5         - * 6 7             8 ",
"                                          & = 9 0         8 q w ",
"                                          2 - e 2         8 r q ",
"                                                          3 ; @ ",
"                              8                           ; : # ",
"% , 5             2 7 t t y u i p a                   s d f g h ",
"$ > 4             1 6 j k l z x c v b               + ; n m M N ",
"# : ;             & B V C Z A S D F G H J K . 1 2   + L P I U Y ",
"@ ; 3             < T R E W Q ! ~ ^ / ( ) X _ 6 7     ` 4 ' I ] ",
"                      [ { } |  ...X.o.O.+.@.#.9 0         4 P $.",
"                      %.&.*.=.-.;.:.>.,.@.<.1.e 2         ` L 2.",
"3.e <             8 4.5.6.7.=.-.8.9.0.q.w.B J               + + ",
"X * e             e.r.t.y.u.=.i.p.a.s.d.f.g.<                   ",
"h.) J             j.k.l.z.x.c.v.b.n.m.M.N.r                     ",
"t 0 2             j.k.l.z.x.B.V.C.Z.A.S.D.r                     ",
"              F.G.H.J.l.z.x.B.V.K.L.P.I.U.r                     ",
"              Y.T.R.E.W.Q.!.B.V.~.^./.(.)._.+ +                 ",
"              Y.`.'.].[.{.}.B.V.|. X.XXXj.oXOX+X@X              ",
"              @X+XOXoX[ { *.#X$X%X&X*X=X  -X;X`.Y.              ",
"                + + + :X>X,X<X1XC.2X3X=X  +X4XT.Y.    2 & - <   ",
"                      5X6X7X8X9X0XqXwXeX  rX-XG.F.    - = * &   ",
"                    + tXyXuXiXpXaXsXdX8               e 9 6 1   ",
"                    + O fXgXhXjXkXlX_.                2 0 7 2   ",
"                      - = zXxXcXvX8                   < J & <   ",
"                      2 & 3.bXnXmX                    e ) = J + ",
"      2 - e <             3 MXNXBX                  + O o VX1.O ",
"    + - 6 ) J             4 CXZXAX                  + O o SX#.o ",
"  < & DX+.X K         ` 4 ' I m f ; 3                 e ) <.FXGX",
"  & B VXSX_ .       + L P I U M g : ;                 < 1 HXVXGX",
"  . _ GXGX_ .       + 2.$.] Y N h # @                     3.X GX"
};
