/* XPM */
static char *f26b51b21d434addb78a3955c8f7effbPuQA83GkXsCXu4VP[] = {
/* columns rows colors chars-per-pixel */
"32 32 27 1 ",
"  c #38B764",
". c #54C567",
"X c #8BE26D",
"o c #66A861",
"O c #C18B5A",
"+ c #C18C5A",
"@ c #66A961",
"# c #4DC266",
"$ c #76D76B",
"% c #5AAC62",
"& c #9F965D",
"* c #3FBB65",
"= c #43B363",
"- c #89A360",
"; c #D0975F",
": c #F3915F",
"> c #EDAE69",
", c #FBB96E",
"< c #92E56E",
"1 c #A0EC6F",
"2 c #69D069",
"3 c #FBB96D",
"4 c #F3915E",
"5 c #44B865",
"6 c #5DBB67",
"7 c #A8C36E",
"8 c #A7F070",
/* pixels */
" .XX.        oO+@               ",
" #$$#        %&&%    *##*       ",
" *##*        =%%=    #$$#       ",
"                     #$$#       ",
"                     *##*       ",
"                             =%o",
"                             %&O",
"o%=      *#..#*            =%-;:",
"O&%      #$XX$#            %&;>,",
"+&%      #$<1<2#*  *#..#*  %&;>3",
"@%=      *#2<1<$#  #$XX$#  =%-;4",
"           #$<1X.*#2<1<$#    %&+",
"           *#2<X.#$<1<2#*    =%@",
".#*          #$$#.X1<$#         ",
"X$#          *##*.X<2#*         ",
"X$#              #$$#           ",
".#*              *##*           ",
"       5665                     ",
"       6776                     ",
"       6776*##*      5665       ",
"       5665#$$#      6776       ",
"           .XX.      6776  *##* ",
"           .XX.      5665  #$$# ",
"           .X<2#*          #$$# ",
"           .X1<$#          *##* ",
"           #$XX$#          *##* ",
"           *#..#*          #$$# ",
"   *##*      =%%=          .X<2.",
"   #$$#      %&&%          .X1<X",
" *#2<X.    =%-;;-%=        #$<18",
" #$<1X.    %&;>>;&%        *#2<8",
" .X88X.    oO:,34+@          .X8"
};
