/* XPM */
static char *_b751c007318469e9c74e2bdfb51ec55W60ogX8C1Vw5q8Z9[] = {
/* columns rows colors chars-per-pixel */
"32 32 185 2 ",
"   c #141414",
".  c #161F19",
"X  c #1B1B1B",
"o  c #181415",
"O  c #231A1A",
"+  c #371C1C",
"@  c #1A221C",
"#  c #1D3624",
"$  c #222222",
"%  c #252B27",
"&  c #2C2C2C",
"*  c #2E2325",
"=  c #362323",
"-  c #273C2F",
";  c #233925",
":  c #343534",
">  c #393A39",
",  c #363937",
"<  c #5F341F",
"1  c #763A1C",
"2  c #4A1D25",
"3  c #561B25",
"4  c #5A1C27",
"5  c #5B1D28",
"6  c #571E28",
"7  c #631D28",
"8  c #6B1E29",
"9  c #6D1D27",
"0  c #751D2A",
"q  c #7B1E2A",
"w  c #711D26",
"e  c #4A2223",
"r  c #56262B",
"t  c #53312F",
"y  c #533531",
"u  c #5C3D35",
"i  c #6D212A",
"p  c #672729",
"a  c #752526",
"s  c #792528",
"d  c #753E23",
"f  c #6F3D34",
"g  c #7D3333",
"h  c #1F482D",
"j  c #204C2F",
"k  c #2A4734",
"l  c #354638",
"z  c #255535",
"x  c #245C37",
"c  c #2C623C",
"v  c #286A3F",
"b  c #386539",
"n  c #4B573D",
"m  c #4F4A39",
"M  c #794F21",
"N  c #6D5122",
"B  c #715023",
"V  c #744739",
"C  c #7E543E",
"Z  c #6C4539",
"A  c #375541",
"S  c #2E6D42",
"D  c #2E7C49",
"F  c #366A43",
"G  c #4C5E41",
"H  c #515E42",
"J  c #6A5A42",
"K  c #7E5B43",
"L  c #4C6C47",
"P  c #486644",
"I  c #457249",
"U  c #447A47",
"Y  c #58754B",
"T  c #626947",
"R  c #756345",
"E  c #687D48",
"W  c #841F2B",
"Q  c #8A1F2B",
"!  c #901F2C",
"~  c #80232D",
"^  c #8C212C",
"/  c #842C2B",
"(  c #9B222D",
")  c #92242C",
"_  c #8B3427",
"`  c #922F32",
"'  c #993A37",
"]  c #AC232F",
"[  c #A2222D",
"{  c #B3232F",
"}  c #BC232F",
"|  c #A82E33",
" . c #B43034",
".. c #C32430",
"X. c #824F22",
"o. c #974523",
"O. c #8D423A",
"+. c #914F34",
"@. c #AB5924",
"#. c #B94D3D",
"$. c #906F29",
"%. c #8D6C29",
"&. c #B16723",
"*. c #8F5642",
"=. c #A45840",
"-. c #8C6A45",
";. c #2C8049",
":. c #35864D",
">. c #348B52",
",. c #309352",
"<. c #359E58",
"1. c #3A9957",
"2. c #34A35A",
"3. c #3AA95F",
"4. c #38A95E",
"5. c #3DAE61",
"6. c #37B262",
"7. c #38B764",
"8. c #3FBB65",
"9. c #548049",
"0. c #558451",
"q. c #588753",
"w. c #439155",
"e. c #449858",
"r. c #5C9157",
"t. c #648F49",
"y. c #668553",
"u. c #6A9C54",
"i. c #78854C",
"p. c #43AD5E",
"a. c #47A25B",
"s. c #51A85E",
"d. c #4AB15E",
"f. c #6FB25F",
"g. c #74A757",
"h. c #41AE61",
"j. c #5BAC62",
"k. c #44B463",
"l. c #42BA65",
"z. c #4CBE65",
"x. c #5EB461",
"c. c #5CBB67",
"v. c #5FBC68",
"b. c #53BC64",
"n. c #66AA61",
"m. c #68A861",
"M. c #61BC68",
"N. c #4EC267",
"B. c #55C667",
"V. c #55C668",
"C. c #6AD16A",
"Z. c #76D76B",
"A. c #78D86B",
"S. c #6ACF68",
"D. c #AF851E",
"F. c #BA8D2D",
"G. c #D89C26",
"H. c #FABC2A",
"J. c #E1BE34",
"K. c #D2AC2C",
"L. c #E7C63A",
"P. c #9E975D",
"I. c #9B985D",
"U. c #888851",
"Y. c #BF8D5C",
"T. c #A49459",
"R. c #87B95C",
"E. c #8AA360",
"W. c #C38C5B",
"Q. c #CD975F",
"!. c #F3925F",
"~. c #CE9860",
"^. c #D29760",
"/. c #ECAE69",
"(. c #FCBA6F",
"). c #8BDC6C",
"_. c #91C764",
"`. c #A7C36E",
"'. c #8BE26D",
"]. c #92E56E",
"[. c #9FEB6F",
"{. c #A0ED6F",
"}. c #A7F070",
"|. c #EACF45",
" X c #F3D646",
/* pixels */
"7.V.'.'.V.7.7.7.7.7.7.7.7.m.Y.W.n.7.7.7.7.7.7.7.7.7.7.7.7.7.7.7.",
"7.N.Z.Z.N.7.7.7.7.7.7.7.7.j.I.P.j.7.7.7.7.l.N.N.8.7.7.7.7.7.7.7.",
"7.l.N.N.8.7.6.7.7.7.7.7.7.k.j.j.h.7.7.7.7.N.Z.Z.N.7.7.7.7.7.7.7.",
"7.7.7.7.7.<.x 6.7.7.7.7.7.7.7.7.z <.7.7.7.N.Z.A.N.7.7.7.7.7.7.7.",
"7.7.7.7.2.- D 7.7.7.7.7.7.7.7.7.>.- ,.7.7.8.N.N.8.7.7.7.7.7.7.7.",
"7.7.7.7.z l <.7.7.7.7.7.7.7.7.7.4.l j 6.7.7.7.7.7.7.7.7.7.k.j.m.",
"7.7.7.2.@ l 4.7.7.7.7.7.7.7.7.7.6.A @ ,.7.7.7.7.7.7.7.7.7.j.I.Y.",
"n.j.k.x o : D 7.7.8.N.V.V.N.8.7.>.: o h 7.7.7.7.7.7.7.k.j.E.Q.!.",
"W.P.j.j   & k 6.7.N.Z.'.'.Z.N.7.k &   # 7.7.7.7.7.7.7.j.T.^./.(.",
"Y.I.j.;.  o : S 6.N.Z.].{.].S.:., X   S N.V.V.N.8.7.7.j.P.~./.(.",
"m.j.k.2.@   & > c 1.Y E i.R.9.> &   . a.Z.'.'.Z.N.7.7.k.j.E.~.!.",
"7.7.7.7.x   o : > 2 q w 7 e : > o   e U._.[.].A.N.7.7.7.7.j.P.W.",
"7.7.7.7.0.+   o * q { { Q 0 = X   ; g.#.| -.f.N.8.7.7.7.7.k.j.n.",
"B.N.l.r.` 9 = o 3 { ....] Q 3 o O 9.).T.] ( / J 5.7.7.7.7.7.7.7.",
"'.Z.N.*.q 4 p p o.{ } ..( o._ 4 2 V +.s 8 [ ! Q J 6.7.7.7.7.7.7.",
"'.Z.x. .u r r / H.@.W ) &.H.@.W 5 q 5 6 6 ~ ( ^ Y 7.7.7.7.7.7.7.",
"V.N.s.' e.3.G s &.&.i o.H.G._ Q 7 7 5 L G G K J 7.7.7.7.7.7.7.7.",
"7.7.h.R 7.7.5.V a a w q a s s s 8 6 P 6.7.6.y.T 7.7.7.7.7.7.7.7.",
"7.7.7.0.7.7.7.u.D.$.B %.$.N G.1 7 r 1.7.7.7.a.q.7.7.7.7.7.7.7.7.",
"7.7.7.7.7.7.7.c.J.K.L. X X|.F.a 4 m 7.7.7.l.c.v.l.7.7.7.7.6.7.7.",
"7.7.7.7.7.7.7.k.t.< X.X.M d s 8 4 y 3.7.7.v.`.`.c.7.7.7.,.v 7.7.",
"7.7.7.7.7.a.R O.g 7 8 q Q Q ( ^ ] s L 7.7.v.`.`.c.7.6.c % c l.7.",
"7.7.7.7.y.O.{ { ] q r u ] { } ( } q y 3.7.l.M.M.l.<.z % $ b N.7.",
"7.7.7.7.' ( ) ( 8 W Y x. .=.] i W 7 0 L 7.7.7.7.7.z % X $ U N.7.",
"7.7.7.7.1.n n F P ^ 0.B.u.R.E f 8 m i W u H w.1.l o o o # p.8.7.",
"7.7.7.7.7.7.2.7.>.Z w.N.Z.'.).C T 6.I p q 0 8 8 5 O . c d.N.l.7.",
"7.7.7.7.7.7.7.7.2.3.7.8.N.B.b.I p.7.7.w.P y t y U <.<.z.Z.Z.N.7.",
"7.7.7.8.N.N.l.7.7.7.7.7.7.k.j.j.k.7.7.7.7.6.6.6.7.7.7.V.'.].C.V.",
"7.7.7.N.Z.Z.N.7.7.7.7.7.7.j.P.T.j.7.7.7.7.7.7.7.7.7.7.V.'.{.].'.",
"7.l.N.C.].'.V.7.7.7.7.k.j.E.~.^.E.j.k.7.7.7.7.7.7.7.7.N.Z.].[.}.",
"7.N.Z.].{.'.V.7.7.7.7.j.P.~././.Q.I.j.7.7.7.7.7.7.7.7.l.N.C.].}.",
"7.V.'.}.}.'.V.7.7.7.7.n.W.!.(.(.!.Y.m.7.7.7.7.7.7.7.7.7.7.B.'.}."
};
