/* XPM */
static char *xpm_[] = {
/* columns rows colors chars-per-pixel */
"32 32 179 2 ",
"   c #141514",
".  c #191C1A",
"X  c #141816",
"o  c #2E1D1E",
"O  c #34181D",
"+  c #17241B",
"@  c #2A241F",
"#  c #1B2F21",
"$  c #1C3725",
"%  c #242424",
"&  c #2C2D2C",
"*  c #212E24",
"=  c #3D2728",
"-  c #273D2F",
";  c #2F3531",
":  c #343433",
">  c #3A3A3A",
",  c #333D37",
"<  c #4F1A1C",
"1  c #4D1A22",
"2  c #551C27",
"3  c #5B1C27",
"4  c #5D1E28",
"5  c #631D28",
"6  c #6B1E27",
"7  c #731E29",
"8  c #7C1E2A",
"9  c #731E27",
"0  c #4F2426",
"q  c #58242B",
"w  c #5B2D2E",
"e  c #572526",
"r  c #543A33",
"t  c #672024",
"y  c #6C232B",
"u  c #672B2E",
"i  c #65272C",
"p  c #73232A",
"a  c #79232C",
"s  c #63382B",
"d  c #653A33",
"f  c #264831",
"g  c #324036",
"h  c #304B39",
"j  c #305534",
"k  c #294E32",
"l  c #2C613E",
"z  c #276A3E",
"x  c #4D563D",
"c  c #534839",
"v  c #6B4120",
"b  c #784823",
"n  c #785527",
"m  c #674D39",
"M  c #74483A",
"N  c #60553F",
"B  c #73563D",
"V  c #586C3F",
"C  c #7F6227",
"Z  c #2A6D41",
"A  c #386844",
"S  c #2C7E49",
"D  c #2B7945",
"F  c #337D4A",
"G  c #387843",
"H  c #5E5840",
"J  c #655640",
"K  c #486846",
"L  c #437C4C",
"P  c #4B774B",
"I  c #58724A",
"U  c #547C48",
"Y  c #596E48",
"T  c #626A47",
"R  c #706B48",
"E  c #747647",
"W  c #841E2B",
"Q  c #881F2B",
"!  c #842529",
"~  c #89202B",
"^  c #81292F",
"/  c #93242C",
"(  c #9B212D",
")  c #922B29",
"_  c #853426",
"`  c #9B3528",
"'  c #882B30",
"]  c #922C30",
"[  c #9E2E32",
"{  c #8D3133",
"}  c #A3212E",
"|  c #AC222E",
" . c #B4232F",
".. c #BB232F",
"X. c #BD2330",
"o. c #A23B36",
"O. c #C32430",
"+. c #84441F",
"@. c #815022",
"#. c #92452E",
"$. c #AC5C21",
"%. c #A4533F",
"&. c #8B6725",
"*. c #8B6036",
"=. c #AB6921",
"-. c #C5771E",
";. c #C57C26",
":. c #2D854B",
">. c #38874D",
",. c #308E50",
"<. c #319453",
"1. c #319955",
"2. c #3D9858",
"3. c #36AA5E",
"4. c #37A55C",
"5. c #38AF60",
"6. c #37B261",
"7. c #38B764",
"8. c #3FBB65",
"9. c #43804E",
"0. c #448851",
"q. c #449957",
"w. c #569457",
"e. c #70994F",
"r. c #7C9351",
"t. c #45A85C",
"y. c #45A55D",
"u. c #5AA758",
"i. c #6EB65D",
"p. c #6BAC5A",
"a. c #46AE61",
"s. c #5BAC62",
"d. c #44B463",
"f. c #41BB65",
"g. c #4DBB64",
"h. c #5BBA65",
"j. c #66AA61",
"k. c #68A861",
"l. c #60B866",
"z. c #4DC267",
"x. c #55C667",
"c. c #55C668",
"v. c #6AD16A",
"b. c #75D76B",
"n. c #78D86B",
"m. c #6EC866",
"M. c #AC8124",
"N. c #B08C25",
"B. c #D7981D",
"V. c #DC9B29",
"C. c #D79426",
"Z. c #F2B527",
"A. c #D0AE2F",
"S. c #FECE38",
"D. c #E3C43B",
"F. c #839753",
"G. c #9E975D",
"H. c #9B985D",
"J. c #BF8D5C",
"K. c #A1965D",
"L. c #97AA5C",
"P. c #8AA360",
"I. c #C38C5B",
"U. c #CD975F",
"Y. c #F3925F",
"T. c #CE9860",
"R. c #D29760",
"E. c #ECAE69",
"W. c #FCBA6F",
"Q. c #88C663",
"!. c #88D96A",
"~. c #A8C26D",
"^. c #8BE26D",
"/. c #92E56E",
"(. c #9FEC6F",
"). c #A0ED6F",
"_. c #A7F070",
"`. c #E2C641",
"'. c #EAD249",
/* pixels */
"7.c.^.^.c.7.7.7.7.7.7.7.7.j.J.I.j.7.7.7.7.7.7.7.7.7.7.7.7.7.7.7.",
"7.z.b.b.z.7.7.6.7.7.7.7.7.s.H.K.s.6.7.7.7.8.z.z.8.7.7.7.7.7.7.7.",
"7.f.z.z.8.7.<.Z 7.7.7.7.7.d.s.s.4.z 6.7.7.z.b.b.z.7.7.7.7.7.7.7.",
"7.7.7.7.7.,.- 1.7.7.7.7.7.7.7.7.7.Z k 6.7.z.b.b.z.7.7.7.7.7.7.7.",
"7.7.7.7.6.f h 6.7.7.7.7.7.7.7.7.7.>.; S 7.8.z.z.8.7.7.7.7.6.7.7.",
"7.7.7.7.S % A 7.7.7.7.7.7.7.7.7.7.4., # 5.7.7.7.7.7.7.7.7.8.s.k.",
"7.7.7.6.$ % , 4.7.7.7.7.7.7.7.7.7.Z : X S 7.7.7.7.7.7.7.7.s.H.J.",
"j.s.d.5.+   & Z 6.8.z.x.x.z.f.7.4., %   Z 7.7.7.7.7.6.8.s.P.T.Y.",
"J.G.s.7.f   # : 1.c.b.^.^.n.z.7.l : . X <.7.7.7.7.7.7.s.K.R.E.W.",
"J.H.s.7.S     : , >.p.r.F.r.u.l > % X + g.c.c.c.8.7.7.s.G.T.E.W.",
"k.s.d.7.6.$   % > : 2 7 5 4 = r : X X G b.!.^.n.z.7.7.f.s.P.T.Y.",
"7.7.7.7.7.:.X   % = Q  .( ! e &   X f m./.(./.b.g.7.7.7.7.s.H.I.",
"7.7.7.7.7.7.,.+   6 ..O.O.( ! O   @ i.^.(./.v.z.f.7.7.7.7.d.s.k.",
"c.g.f.7.7.7.7.2.s ` ....../ ` a 1 2 E )./.b.z.7.7.7.7.7.7.7.7.7.",
"^.b.z.7.7.7.7.q.$.V.` ~ ) ;.Z._ 7 3 s Q.v.z.f.7.7.7.7.7.7.7.7.7.",
"^.b.z.7.7.7.7.w._ C.$.t -.S.V.! 8 2 7 M z.7.7.7.7.7.7.7.7.7.7.7.",
"c.g.8.7.7.7.5.#.8 t p 9 _ a a t Q 5 4 8 P 7.7.7.7.7.7.7.7.7.7.7.",
"7.7.7.7.7.f.J < +.N.C n b &.n B.5 2 r T u >.7.7.7.7.7.7.7.7.7.7.",
"7.7.7.7.7.8.m 1 *.Z.A.D.D.'.`.=.9 3 K w.a H 7.7.7.7.7.7.7.7.7.7.",
"7.7.7.7.7.7.I 4 e n v M.@.&.b a 4 2 K 5.{ q I h.f.7.7.7.7.7.7.7.",
"7.7.7.7.7.7.I q I w 3 9 ~ 8 5 4 2 3 r a.] 1 v ~.h.7.7.7.7.7.7.7.",
"7.7.7.7.7.7.M ( [ 8 2 w u Q ~ } ( | u q.T 0 M ~.h.7.7.8.z.z.8.7.",
"7.7.7.7.6.R [  .( } p w.F. . .| | } 7 L 7.H w l.f.7.7.z.b.b.z.7.",
"7.7.7.7.y.] ( / a a ^ h.L.o.%.( a 7 5 r 3.q.w 0.7.7.7.z.n.b.z.7.",
"7.7.7.7.7.F K A F N ' s.!.e.Q.V y u 7 8 c 3.2.L 1.1.<.1.y.z.8.7.",
"7.7.7.7.7.7.5.4.7.K J g.n.^./.m.^ 0.K a Q w A f & & & & # q.8.7.",
"7.7.7.7.7.7.7.7.7.5.6.f.c.x.c.a.>.6.6.L d u 3 O & : : ; P b.z.7.",
"7.7.7.8.z.z.8.7.7.7.7.7.7.f.s.s.d.7.7.7.7.q.x o   . . h !./.v.c.",
"7.7.7.z.b.b.z.7.7.7.7.7.7.s.G.K.s.7.7.7.7.7.7.1.z z 1.x.!.(./.^.",
"7.f.z.v./.^.c.7.7.7.7.d.s.P.T.R.P.s.d.7.7.7.7.7.7.7.7.z.n./.)._.",
"7.z.b./.).^.c.7.7.7.7.s.G.T.E.E.T.H.s.7.7.7.7.7.7.7.7.f.z.v./._.",
"7.c.^._._.^.c.7.7.7.7.j.I.Y.W.W.Y.I.k.7.7.7.7.7.7.7.7.7.7.x.^._."
};
