/* XPM */
static char *_df6617935b149f8872e6206644a30074eoUJrQ88UfodvOb[] = {
/* columns rows colors chars-per-pixel */
"32 32 189 2 ",
"   c #141514",
".  c #1B1B1B",
"X  c #191817",
"o  c #2C191C",
"O  c #31171C",
"+  c #1B291F",
"@  c #391C20",
"#  c #1B3825",
"$  c #252525",
"%  c #272E29",
"&  c #272C28",
"*  c #243829",
"=  c #2F3B33",
"-  c #343333",
";  c #3A3A3A",
":  c #74361D",
">  c #541C26",
",  c #591C27",
"<  c #5D1C28",
"1  c #561F28",
"2  c #631D28",
"3  c #681D27",
"4  c #731E29",
"5  c #7C1E2A",
"6  c #542125",
"7  c #56222A",
"8  c #542D2E",
"9  c #5A2B2D",
"0  c #5A262B",
"q  c #58302F",
"w  c #543A33",
"e  c #61242C",
"r  c #6A2526",
"t  c #752927",
"y  c #6E3D2E",
"u  c #743C22",
"i  c #753224",
"p  c #6F2E30",
"a  c #6E3131",
"s  c #1F412B",
"d  c #244E31",
"f  c #2F4838",
"g  c #35483B",
"h  c #255A37",
"j  c #225333",
"k  c #355939",
"l  c #28452A",
"z  c #28623A",
"x  c #346E3E",
"c  c #4E4E3B",
"v  c #4C553E",
"b  c #57553E",
"n  c #5C4537",
"m  c #644939",
"M  c #7B4B3B",
"N  c #6D523D",
"B  c #365441",
"V  c #366C42",
"C  c #2B7A46",
"Z  c #2D7647",
"A  c #347342",
"S  c #2D6A42",
"D  c #6A5B42",
"F  c #775A42",
"G  c #4A6544",
"H  c #576745",
"J  c #457A4C",
"K  c #5C774B",
"L  c #587A4C",
"P  c #74764D",
"I  c #687447",
"U  c #841E2B",
"Y  c #8B1E2B",
"T  c #931F2C",
"R  c #8B202C",
"E  c #84292B",
"W  c #94212D",
"Q  c #9F212D",
"!  c #942A2C",
"~  c #8C3726",
"^  c #923E24",
"/  c #812E31",
"(  c #8E2B30",
")  c #962B31",
"_  c #893935",
"`  c #9A3E38",
"'  c #AB222E",
"]  c #A2232D",
"[  c #B4232F",
"{  c #BC232F",
"}  c #A82B31",
"|  c #BD2430",
" . c #B12831",
".. c #A73534",
"X. c #C42430",
"o. c #86451E",
"O. c #874C3D",
"+. c #99443B",
"@. c #9A4823",
"#. c #AB512F",
"$. c #946F29",
"%. c #B86B23",
"&. c #C2721F",
"*. c #C47723",
"=. c #915841",
"-. c #A85F43",
";. c #866346",
":. c #9A794A",
">. c #A36042",
",. c #2F894E",
"<. c #2F804B",
"1. c #2F8E50",
"2. c #388450",
"3. c #3E9456",
"4. c #349F59",
"5. c #3E9B59",
"6. c #329554",
"7. c #328249",
"8. c #36AB5E",
"9. c #39A55C",
"0. c #36AE60",
"q. c #3BAE61",
"w. c #37B362",
"e. c #38B764",
"r. c #3FBB65",
"t. c #55804F",
"y. c #428651",
"u. c #588652",
"i. c #449C5A",
"p. c #459657",
"a. c #5B9B5B",
"s. c #45A25C",
"d. c #45AC5D",
"f. c #50A25D",
"g. c #49B15E",
"h. c #47B15F",
"j. c #72B55C",
"k. c #5BAC62",
"l. c #44B463",
"z. c #42BA65",
"x. c #5CBA66",
"c. c #5FBC68",
"v. c #57BA63",
"b. c #66AA61",
"n. c #68A861",
"m. c #61BC68",
"M. c #758E53",
"N. c #4DC267",
"B. c #55C667",
"V. c #55C668",
"C. c #74CA65",
"Z. c #6AD16A",
"A. c #76D76B",
"S. c #78D86B",
"D. c #64C263",
"F. c #9A842E",
"G. c #B39831",
"H. c #A98522",
"J. c #BCA135",
"K. c #D39027",
"L. c #DBBA3A",
"P. c #D1AD30",
"I. c #E3B02A",
"U. c #E0BC36",
"Y. c #FBC22F",
"T. c #FDCD35",
"R. c #9E975D",
"E. c #9B985D",
"W. c #BF8D5C",
"Q. c #A1965D",
"!. c #AAB25D",
"~. c #8AA360",
"^. c #ADB066",
"/. c #C38C5B",
"(. c #CD975F",
"). c #F3925F",
"_. c #CE9860",
"`. c #D29760",
"'. c #ECAE69",
"]. c #FCBA6F",
"[. c #92D969",
"{. c #88DB6B",
"}. c #A6C66C",
"|. c #8BE26D",
" X c #92E56E",
".X c #9EE86E",
"XX c #A0ED6F",
"oX c #A7F070",
"OX c #ECCD40",
/* pixels */
"e.V.|.|.V.e.e.e.e.e.e.e.e.n.W./.b.e.e.e.e.e.e.e.e.e.e.e.e.e.e.e.",
"e.N.A.A.N.e.e.e.e.e.e.e.e.k.E.R.k.e.e.e.e.z.N.N.r.e.e.e.e.e.e.e.",
"e.z.N.N.r.e.4.e.e.e.e.e.e.l.k.k.3.e.e.e.e.N.A.A.N.e.e.e.e.e.e.e.",
"e.e.e.e.e.<.h e.e.e.e.e.e.e.e.e.h Z e.e.e.N.A.S.N.e.e.e.e.e.e.e.",
"e.e.e.e.,.% ,.e.e.e.e.e.e.e.e.e.4.% C e.e.r.N.N.r.e.e.e.e.e.e.e.",
"e.e.e.w.s g 8.e.e.e.e.e.e.e.e.e.w.B * 0.e.e.e.e.e.e.e.e.e.l.k.n.",
"e.e.e.1.X g 4.e.e.e.e.e.e.e.e.e.8.g . C e.e.e.e.e.e.e.e.e.k.E.W.",
"b.k.l.d   - S e.e.r.N.V.V.N.r.e.Z - . # e.e.e.e.e.e.e.l.k.~.(.).",
"/.R.k.j   $ = 9.e.N.A.|.|.A.N.w.= $   # e.e.e.e.e.e.e.k.Q.`.'.].",
"W.E.k.6.    - f 9.N.C.[..X XD.k ; .   7.N.V.V.N.r.e.e.k.R._.'.].",
"n.k.l.8.#   $ ; f V n m m I k ; &   + g.A.|.|.A.N.e.e.l.k.~._.).",
"e.e.e.e.C     % - , Y U 4 > - -     x Z.[.}. XS.N.e.e.e.e.k.R./.",
"e.e.e.e.w.z     o R | { T U @     k C. X!...M.N.r.e.e.e.e.l.k.b.",
"B.N.z.P M p.C + 3 { X.X.[ U 3 o O K |.XX[.#.( s.e.e.e.e.e.e.e.e.",
"|.A.v.+.4 p m y %.] ' [ ! &.@.4 , _ -.>.=.] Q D e.e.e.e.e.e.e.e.",
"|.A.k.} 2 1 0 E Y.*.4 ~ K.T.#.U 2 U 3 < < 4 ' R L e.e.e.e.e.e.e.",
"V.N.r.=.m G i.t ~ ^ 5 ~ K.%.R Y 3 > 8 v 7 , W Y / i.e.e.e.e.e.e.",
"e.e.e.P F e.e.I u u r t r r o.t 3 7 J q.y.c _ Y / K e.e.e.e.e.e.",
"e.e.e.d.O.s.e.b.P.G.$.G.J.F.I.: < 8 9.e.e.q.O.D s.w.e.e.e.e.e.e.",
"e.e.e.e.s.p.e.x.L.H.U.L.T.L.$.4 , c e.e.e.a.;.c.z.e.e.e.e.e.e.e.",
"e.e.e.e.e.e.q.f.K 6 i i t t 4 3 3 0 3.e.e.b.^.}.x.e.e.e.e.0.w.e.",
"e.e.e.e.e.u.+. .W 3 2 4 W ] [ ] | 5 v e.e.c.}.}.x.e.e.r.d.d 9.e.",
"e.e.e.e.;.) ' ' Q U w H  .} [ R ' 4 e 5.e.z.c.m.z.e.8.A * & d.e.",
"e.e.e.e.O.W / / 0 U L x.` :.! e 3 2 5 b w.e.e.e.e.4.* $ $ * h.e.",
"e.e.e.e.0.2.A 6.p.( t.V.C.[.j.M p J 9 5 a G 5.q.6.% . . . z r.e.",
"e.e.e.e.e.e.w.e.2.H 9.N.A.|.{.N u.e.3.q 4 5 r r 6 X     l g.z.e.",
"e.e.e.e.e.e.e.e.e.e.e.r.N.B.v.i.r.e.e.5.G w 8 8 v k j A C.A.N.e.",
"e.e.e.r.N.N.z.e.e.e.e.e.e.l.k.k.l.e.e.e.e.w.q.q.e.e.e.V.|. XZ.V.",
"e.e.e.N.A.A.N.e.e.e.e.e.e.k.R.Q.k.e.e.e.e.e.e.e.e.e.e.V.|.XX X|.",
"e.z.N.Z. X|.V.e.e.e.e.l.k.~._.`.~.k.l.e.e.e.e.e.e.e.e.N.A. X.XoX",
"e.N.A. XXX|.V.e.e.e.e.k.R._.'.'.(.E.k.e.e.e.e.e.e.e.e.z.N.Z. XoX",
"e.V.|.oXoX|.V.e.e.e.e.b./.).].].).W.n.e.e.e.e.e.e.e.e.e.e.B.|.oX"
};
