/* XPM */
static char *xpm_[] = {
/* columns rows colors chars-per-pixel */
"32 32 184 2 ",
"   c #141414",
".  c #1A1B1A",
"X  c #181616",
"o  c #211416",
"O  c #3B1A1E",
"+  c #31171C",
"@  c #1D251E",
"#  c #3F1920",
"$  c #1D2720",
"%  c #1C3424",
"&  c #242424",
"*  c gray18",
"=  c #322B2C",
"-  c #27372D",
";  c #2C3930",
":  c #333534",
">  c #333B35",
",  c #3C3C3C",
"<  c #3C322A",
"1  c #42181E",
"2  c #441A21",
"3  c #4D1B24",
"4  c #551C26",
"5  c #5A1C27",
"6  c #5F1D28",
"7  c #631D28",
"8  c #6B1E29",
"9  c #601B25",
"0  c #741D2A",
"q  c #7C1E2A",
"w  c #781F27",
"e  c #5A232A",
"r  c #5C2B2D",
"t  c #55282C",
"y  c #48352A",
"u  c #4A3F30",
"i  c #583632",
"p  c #563933",
"a  c #5E3B34",
"s  c #553B2E",
"d  c #63252B",
"f  c #692529",
"g  c #762928",
"h  c #653421",
"j  c #6E3332",
"k  c #793A35",
"l  c #743724",
"z  c #24412E",
"x  c #274D34",
"c  c #354539",
"v  c #255C38",
"b  c #2B5D3A",
"n  c #275232",
"m  c #385832",
"M  c #2B643E",
"N  c #7D5A1F",
"B  c #4E4737",
"V  c #564538",
"C  c #4C553E",
"Z  c #784B24",
"A  c #684537",
"S  c #6F563A",
"D  c #297443",
"F  c #2C7B47",
"G  c #396548",
"H  c #4F5C41",
"J  c #555D42",
"K  c #665A41",
"L  c #745E43",
"P  c #48764A",
"I  c #5A774B",
"U  c #506B47",
"Y  c #6C6844",
"T  c #7D6145",
"R  c #707A4D",
"E  c #831E2B",
"W  c #881E2B",
"Q  c #84262D",
"!  c #8C212D",
"~  c #862B28",
"^  c #93202C",
"/  c #9C212D",
"(  c #9D2C2A",
")  c #803027",
"_  c #913A25",
"`  c #843533",
"'  c #A3212E",
"]  c #AB222E",
"[  c #B6232F",
"{  c #B52931",
"}  c #A53936",
"|  c #C22430",
" . c #835C1F",
".. c #AA711C",
"X. c #9C4823",
"o. c #A04D24",
"O. c #A35424",
"+. c #966F27",
"@. c #AD6020",
"#. c #A17B28",
"$. c #C3761F",
"%. c #805741",
"&. c #83754E",
"*. c #A5724C",
"=. c #2E894D",
"-. c #35824E",
";. c #2F8F50",
":. c #319353",
">. c #3F9353",
",. c #3E9B59",
"<. c #339B57",
"1. c #34A15A",
"2. c #35AB5E",
"3. c #3DA05B",
"4. c #3DAF61",
"5. c #37B262",
"6. c #38B764",
"7. c #3FBB65",
"8. c #438250",
"9. c #498652",
"0. c #598853",
"q. c #419356",
"w. c #4B9455",
"e. c #4A9C5A",
"r. c #569254",
"t. c #648C54",
"y. c #43A25C",
"u. c #53A25A",
"i. c #46B25F",
"p. c #6AAA59",
"a. c #66B65C",
"s. c #42AF60",
"d. c #5AAC62",
"f. c #44B363",
"g. c #42BA65",
"h. c #5BBB66",
"j. c #5FBC68",
"k. c #53B562",
"l. c #66AA61",
"z. c #68A861",
"x. c #64BE65",
"c. c #4EC267",
"v. c #55C667",
"b. c #55C668",
"n. c #5AC266",
"m. c #6AD16A",
"M. c #75D66B",
"N. c #78D86B",
"B. c #75C964",
"V. c #8D9337",
"C. c #BB972C",
"Z. c #F5A91E",
"A. c #D99022",
"S. c #CE9B29",
"D. c #D3B538",
"F. c #C3AA38",
"G. c #EFAE29",
"H. c #EDB82C",
"J. c #DEC13D",
"K. c #FACB39",
"L. c #9E975D",
"P. c #9B985D",
"I. c #959F55",
"U. c #9B8E59",
"Y. c #BF8D5C",
"T. c #A1965D",
"R. c #89A360",
"E. c #88BF60",
"W. c #C38A5A",
"Q. c #CD975F",
"!. c #F3925F",
"~. c #CE9860",
"^. c #D29760",
"/. c #ECAE69",
"(. c #FCBA6F",
"). c #8AD66A",
"_. c #96DC69",
"`. c #A6C56C",
"'. c #8BE26D",
"]. c #92E56E",
"[. c #9FEC6F",
"{. c #A0ED6F",
"}. c #A7F070",
"|. c #E4CE48",
/* pixels */
"6.b.'.'.b.6.6.6.6.6.6.6.6.l.W.W.l.6.6.6.6.6.6.6.6.6.6.6.6.6.6.6.",
"6.c.M.M.c.6.6.6.6.6.6.6.6.d.P.T.d.6.6.6.6.7.c.c.7.6.6.6.6.6.6.6.",
"6.g.c.c.7.6.6.6.6.6.6.6.6.f.d.d.f.6.6.6.6.c.M.N.c.6.6.6.6.6.6.6.",
"6.6.6.6.6.2.F 6.6.6.6.6.6.6.6.6.F 6.6.6.6.c.M.N.c.6.6.6.6.6.6.6.",
"6.6.6.6.2.x F 6.6.6.6.6.6.6.6.6.v D 5.6.6.6.c.c.7.6.6.6.6.6.6.6.",
"6.6.6.6.v ; 1.6.6.6.6.6.6.6.6.6.=.* D 6.6.6.6.6.6.6.6.6.6.f.d.l.",
"6.6.6.1.$ G 6.6.6.6.6.6.6.6.6.6.5.c % 5.6.6.6.6.6.6.6.6.6.d.P.Y.",
"l.k.f.v . > <.6.6.g.g.b.b.c.g.6.=.: . F 6.6.6.6.6.6.6.f.k.R.~.!.",
"W.L.d.%   : M 6.6.v.M.'.].N.c.5.x *   n 6.6.6.6.6.6.6.d.T.^./.(.",
"Y.P.d.x   & > <.6.c.M.].{.].m.>.: . o s R I I P P P P 0.U.~./.(.",
"l.d.s.G   X : c :.f.u.p.E._.p.c =   O y 2 3 3 4 4 4 5 e j L W.!.",
"6.u.T f o   & , : < 7 6 6 u : , .   x h.y # 3 # 4 4 4 t P 0.&.*.",
"t.j 5 4 +     & = 0 ' / q 5 = o   @ a.].Y 2 3 4 2 4 r ,.5.f.d.l.",
"n.r.p 4 3 O     4 ] | | / E O   X w.'.`.d 2 3 0 7 6 U 6.6.6.6.6.",
").M.u.i w 4 1 O Q | | | / ~ f O 2 I ).*.6 4 2 W W d 8.6.6.6.6.6.",
"'.M.c.6.K 4 9 _ A.( / / X.Z.X.w 9 d ` 9 0 q 2 ! I s.6.6.6.6.6.6.",
"b.c.7.6.y.r 9 ) G.$.7 @.K.G._ E e 0 0 E ! W d w.6.6.6.6.6.6.6.6.",
"6.6.6.6.6.,.V Q g g q ~ O._ w W 8 8 j ~ k I 9.6.6.6.6.6.6.6.6.6.",
"6.6.6.6.6.6.q.S  .Z h l Z h ..f 6 i q.0.y.6.6.6.6.6.6.6.6.6.6.6.",
"6.6.6.6.6.6.6.x.H.D.F.J.|.D.S.f 4 B 5.6.6.f.j.j.g.6.6.5.=.:.6.6.",
"6.6.6.6.6.6.6.f.V.N C.#.C.+.g 8 4 C 6.6.6.x.`.`.h.6.<.z & D 5.6.",
"6.6.6.6.7.s.0.Y s 6 f E q w Q w ! d q.6.6.h.`.`.h.<.- & . >.6.6.",
"6.6.6.6.e.S { [ ' f r 8 ] [ [ ' [ 0 C 6.6.g.x.x.s.- & . . x.g.7.",
"6.6.6.4.} / ' ^ W Q 9.t.{ } ' ! ^ 8 f ,.6.6.6.6.D & X   m M.b.6.",
"6.6.6.6.J g A B p Q e.h.L I.j t 7 r q j J q.,.J 2   X M s.c.7.6.",
"6.6.6.6.5.1.:.5.P ` e.g.B.).).` K q.V q E q 8 e u b =.g.c.c.7.6.",
"6.6.6.6.6.6.6.6.-.q.6.g.g.b.k.B s.5.,.J p p V P 4.6.6.c.M.M.c.6.",
"6.6.6.7.c.c.7.6.6.6.6.6.6.f.d.d.f.6.6.6.5.5.6.6.6.6.6.b.'.].m.b.",
"6.6.6.c.M.M.c.6.6.6.6.6.6.d.L.T.d.6.6.6.6.6.6.6.6.6.6.b.'.{.].'.",
"6.g.c.m.].'.b.6.6.6.6.f.d.R.~.~.R.d.f.6.6.6.6.6.6.6.6.c.M.].{.}.",
"6.c.M.'.{.'.b.6.6.6.6.d.L.~././.~.P.d.6.6.6.6.6.6.6.6.g.c.m.].}.",
"6.b.'.}.}.'.b.6.6.6.6.z.W.!.(.(.!.Y.l.6.6.6.6.6.6.6.6.6.6.b.'.}."
};
