/* XPM */
static char *_44a6f97831d4cac925e5edc555c0c87Kp3wpT1fHqEmyjQ4[] = {
/* columns rows colors chars-per-pixel */
"32 32 252 2 ",
"   c #38B764",
".  c #56C768",
"X  c #8AE16D",
"o  c #8CE26E",
"O  c #54C668",
"+  c #39B764",
"@  c #68A861",
"#  c #BF8D5C",
"$  c #C48B5B",
"%  c #64AA61",
"&  c #4EC267",
"*  c #74D66B",
"=  c #75D76B",
"-  c #4DC267",
";  c #5BAC62",
":  c #9B985D",
">  c #9F975D",
",  c #58AD62",
"<  c #40BB65",
"1  c #4FC367",
"2  c #3FBB65",
"3  c #44B363",
"4  c #5CAC62",
"5  c #44B464",
"6  c #77D76B",
"7  c #4CC167",
"8  c #78D86B",
"9  c #4CC166",
"0  c #4DC266",
"q  c #3FB964",
"w  c #4BBF66",
"e  c #53C568",
"r  c #38B664",
"t  c #38B564",
"y  c #43B463",
"u  c #59AD62",
"i  c #88A360",
"p  c #CD975F",
"a  c #F3915F",
"s  c #388753",
"d  c #538D53",
"f  c #8ADE6D",
"g  c #8BDF6D",
"h  c #75D46A",
"j  c #4EC066",
"k  c #38B463",
"l  c #319458",
"z  c #2A704C",
"x  c #37AF62",
"c  c #A1965D",
"v  c #D29760",
"b  c #EDAE69",
"n  c #FCBB6F",
"m  c #38B563",
"M  c #308252",
"N  c #6E7F55",
"B  c #818758",
"V  c #486046",
"C  c #496046",
"Z  c #425D45",
"A  c #335543",
"S  c #2A5142",
"D  c #284F42",
"F  c #274F42",
"G  c #546B4E",
"H  c #858C5B",
"J  c #40774F",
"K  c #4BBB64",
"L  c #5AAD62",
"P  c #9D975D",
"I  c #CE9860",
"U  c #EBAD68",
"Y  c #FCB86E",
"T  c #309358",
"R  c #667A53",
"E  c #D2C573",
"W  c #C6A66C",
"Q  c #7F4C4E",
"!  c #7E4B4E",
"~  c #A57D5E",
"^  c #DFCF77",
"/  c #91945E",
"(  c #41714B",
")  c #44B463",
"_  c #8BA260",
"`  c #F3935F",
"'  c #2B7E51",
"]  c #8C8559",
"[  c #FEEC83",
"{  c #D1A768",
"}  c #974D46",
"|  c #964C46",
" . c #B67D58",
".. c #FAE780",
"X. c #C1B66D",
"o. c #28393A",
"O. c #C28C5B",
"+. c #FEED83",
"@. c #D7AC6D",
"#. c #A55851",
"$. c #A55750",
"%. c #C08560",
"&. c #FBE781",
"*. c #243739",
"=. c #67A961",
"-. c #55C667",
";. c #D2A768",
":. c #984D47",
">. c #984C47",
",. c #B77E59",
"<. c #223639",
"1. c #8B8459",
"2. c #FEEC82",
"3. c #D6AA6B",
"4. c #A2554E",
"5. c #A1544E",
"6. c #BE835E",
"7. c #FBE780",
"8. c #C1B56D",
"9. c #8EE36E",
"0. c #76D76B",
"q. c #4EC367",
"w. c #877447",
"e. c #F6CD5F",
"r. c #BE9052",
"t. c #774342",
"y. c #764242",
"u. c #754142",
"i. c #764142",
"p. c #9D6D4B",
"a. c #F1C85E",
"s. c #BB9E52",
"d. c #223538",
"f. c #846838",
"g. c #EFB441",
"h. c #D09B3D",
"j. c #A77936",
"k. c #895933",
"l. c #64302F",
"z. c #7C4A32",
"x. c #A67836",
"c. c #8D5C34",
"v. c #794731",
"b. c #A57736",
"n. c #BD8B3A",
"m. c #EDB241",
"M. c #B68C3C",
"N. c #223437",
"B. c #317F51",
"V. c #473C33",
"C. c #786037",
"Z. c #785F37",
"A. c #775E37",
"S. c #614634",
"D. c #442831",
"F. c #835B37",
"G. c #AF803B",
"H. c #462931",
"J. c #543933",
"K. c #755D37",
"L. c #796037",
"P. c #5E4D35",
"I. c #1D3136",
"U. c #3A8052",
"Y. c #4D4133",
"T. c #6B4C35",
"R. c #4A2A31",
"E. c #4A2931",
"W. c #33222F",
"Q. c #675336",
"!. c #ECB241",
"~. c #9C7A3B",
"^. c #2C212F",
"/. c #482831",
"(. c #5C3C33",
"). c #826638",
"_. c #675335",
"`. c #1E3136",
"'. c #3A8053",
"]. c #EEB341",
"[. c #AF7938",
"{. c #5D2D2E",
"}. c #5C2C2D",
"|. c #46262C",
" X c #4B3830",
".X c #816538",
"XX c #604A33",
"oX c #3D242C",
"OX c #5B2C2D",
"+X c #895633",
"@X c #E9AE40",
"#X c #253537",
"$X c #44B865",
"%X c #B07939",
"&X c #5E2E2E",
"*X c #562B2F",
"=X c #4B2A32",
"-X c #512B30",
";X c #5C2D2E",
":X c #5D2D2D",
">X c #8A5633",
",X c #E9AF40",
"<X c #2D3537",
"1X c #5BBB67",
"2X c #2C7E51",
"3X c #D6993E",
"4X c #B6763B",
"5X c #B98248",
"6X c #BD925A",
"7X c #BD925B",
"8X c #BB8950",
"9X c #B6773B",
"0X c #C7893C",
"qX c #524433",
"wX c #8E6F39",
"eX c #8D6F39",
"rX c #8C6E39",
"tX c #907A48",
"yX c #958C5C",
"uX c #928251",
"iX c #8D6E3A",
"pX c #8D6E39",
"aX c #6E5836",
"sX c #223236",
"dX c #45B965",
"fX c #215141",
"gX c #2B5643",
"hX c #3F6045",
"jX c #426245",
"kX c #375C44",
"lX c #2D5743",
"zX c #255342",
"xX c #245F46",
"cX c #A0ED70",
"vX c #94E76E",
"bX c #79D86B",
"nX c #4CC267",
"mX c #56C667",
"MX c #4FC267",
"NX c #91E56E",
"BX c #6AD16A",
"VX c #A0ED6F",
"CX c #93E66E",
"ZX c #69D16A",
"AX c #92E66E",
"SX c #56C668",
"DX c #92E56E",
"FX c #9FEC6F",
"GX c #A7F070",
"HX c #75D66B",
"JX c #8BE16D",
"KX c #6BD16A",
/* pixels */
"  . X o O +               @ # $ %                               ",
"  & * = -                 ; : > ,         < & 1 2               ",
"  < - & 2                 3 ; 4 5         - * 6 7               ",
"                                          & = 8 9               ",
"                                          2 - 0 2               ",
"                                                          3 ; @ ",
"                                                          ; : # ",
"% , 5             q w e e 7 2           r t           y u i p a ",
"$ > 4           r s d f g h j k k k k k l z x       + ; c v b n ",
"# : ;         m M N B V C Z A S D F F D G H J K 2   + L P I U Y ",
"@ ; 3         T R E W Q ! ! ! ! ! ! ! ! ~ ^ / ( 7     ) 4 _ I ` ",
"              ' ] [ { } | | | | | | | |  ...X.o.9         4 P O.",
"              ' ] +.@.#.$.$.$.$.$.$.$.$.%.&.X.*.2         ) L =.",
"-.0 <         ' ] [ ;.:.>.>.>.>.>.>.>.>.,...X.<.            + + ",
"X * 0         ' 1.2.3.4.5.5.5.5.5.5.5.5.6.7.8.<.                ",
"9.0.q.        ' w.e.r.t.y.u.i.y.y.u.u.y.p.a.s.d.                ",
"e 9 2         ' f.g.h.j.k.l.z.x.c.l.v.b.n.m.M.N.                ",
"              B.V.C.Z.A.S.D.F.g.G.H.J.K.A.L.P.I.                ",
"              U.Y.f.T.R.E.W.Q.!.~.^./.E.(.)._.`.                ",
"              '.f.].[.{.}.|. X.XXXoXOX}.+X@XM.#X$X              ",
"              B.f.g.%X&X{.{.*X=X-X;X{.:X>X,XM.<X1X              ",
"              2Xf.g.3X4X5X6X7X7X7X7X8X9X0Xm.M.<X1X    2 & - <   ",
"              ' qXwXeXrXtXyXyXyXyXyXuXiXpXwXaXsXdX    - = * &   ",
"              T fXfXfXgXhXjXkXlXzXfXfXfXfXfXfXxX      0 8 6 1   ",
"                    + O o cXvXbXnX                    2 9 7 2   ",
"                      - = X X 0.9                     < q.& <   ",
"                      2 & -.mXMX2                     0 0.= q.+ ",
"      2 - 0 <             ) L ; y                   + O o NXBXO ",
"    + - 6 0.q.            4 P c u                   + O o VXCXo ",
"  < & ZXAXX SX        ) 4 _ I v i ; 3                 0 0.DXFXGX",
"  & HXNXVXJX.       + L P I U b p : ;                 < 1 KXNXGX",
"  . JXGXGXJX.       + =.O.` Y n a # @                     -.X GX"
};
