/* XPM */
static char *_d00bc4ccfaf42faa7d4747d7141e09b0YuBgkzdCEJw2kcx[] = {
/* columns rows colors chars-per-pixel */
"32 32 216 2 ",
"   c #38B764",
".  c #56C768",
"X  c #8AE16D",
"o  c #8CE26E",
"O  c #54C668",
"+  c #39B764",
"@  c #68A861",
"#  c #BF8D5C",
"$  c #C48B5B",
"%  c #64AA61",
"&  c #4EC267",
"*  c #74D66B",
"=  c #75D76B",
"-  c #4DC267",
";  c #5BAC62",
":  c #9B985D",
">  c #9F975D",
",  c #58AD62",
"<  c #40BB65",
"1  c #4FC367",
"2  c #3FBB65",
"3  c #44B363",
"4  c #5CAC62",
"5  c #44B464",
"6  c #77D76B",
"7  c #4CC167",
"8  c #78D86B",
"9  c #4CC166",
"0  c #4DC266",
"q  c #37B563",
"w  c #35A65B",
"e  c #329854",
"r  c #329653",
"t  c #34A35A",
"y  c #37B462",
"u  c #46B360",
"i  c #5D985A",
"p  c #949567",
"a  c #C8AB7E",
"s  c #EBC592",
"d  c #EFC894",
"f  c #D0B082",
"g  c #9A9669",
"h  c #60935C",
"j  c #35A45A",
"k  c #43B463",
"l  c #59AD62",
"z  c #88A360",
"x  c #CD975F",
"c  c #F3915F",
"v  c #519556",
"b  c #C0AD7C",
"n  c #FCD39C",
"m  c #FFD59E",
"M  c #FDD49D",
"N  c #D1B585",
"B  c #4F8A54",
"V  c #37B362",
"C  c #A1965D",
"Z  c #D29760",
"A  c #EDAE69",
"S  c #FCBB6F",
"D  c #38B664",
"F  c #5A955B",
"G  c #E1BF8D",
"H  c #EDC793",
"J  c #759B61",
"K  c #52BF64",
"L  c #5AAD62",
"P  c #9D975D",
"I  c #CE9860",
"U  c #EBAD68",
"Y  c #FCB86E",
"T  c #3E9F5A",
"R  c #D5B787",
"E  c #E1BE8C",
"W  c #80AD5F",
"Q  c #44B463",
"!  c #8BA260",
"~  c #F3935F",
"^  c #869264",
"/  c #BEAB78",
"(  c #71CB65",
")  c #C28C5B",
"_  c #389B57",
"`  c #E3BF8E",
"'  c #F5CD98",
"]  c #519253",
"[  c #65A660",
"{  c #55C667",
"}  c #519459",
"|  c #FED49D",
" . c #EAC391",
".. c #C8A77C",
"X. c #739360",
"o. c #34A359",
"O. c #5F955D",
"+. c #CAA97D",
"@. c #776349",
"#. c #8A9B68",
"$. c #319954",
"%. c #8EE36E",
"&. c #76D76B",
"*. c #4EC367",
"=. c #58955B",
"-. c #FED49E",
";. c #CCAA7E",
":. c #7B674D",
">. c #7E9664",
",. c #329E57",
"<. c #53C568",
"1. c #3C9655",
"2. c #F1CA96",
"3. c #E5BF8E",
"4. c #FBD29B",
"5. c #37B161",
"6. c #36AF60",
"7. c #A19A6D",
"8. c #CAB181",
"9. c #5C9759",
"0. c #D4B284",
"q. c #CEAC7F",
"w. c #E2BD8C",
"e. c #F4CD98",
"r. c #6E9660",
"t. c #5AB966",
"y. c #8E915F",
"u. c #F7CF99",
"i. c #FAD19B",
"p. c #FBD29C",
"a. c #939968",
"s. c #5AAE60",
"d. c #5EBC68",
"f. c #44B865",
"g. c #5AB564",
"h. c #73905C",
"j. c #E3C18E",
"k. c #F0CA95",
"l. c #768D5D",
"z. c #5FB062",
"x. c #A6C36D",
"c. c #AAC46E",
"v. c #5BBB67",
"b. c #38B362",
"n. c #469B5A",
"m. c #828261",
"M. c #CCAF87",
"N. c #F2CA96",
"B. c #F4CC97",
"V. c #D4B48A",
"C. c #8D8770",
"Z. c #4B9056",
"A. c #38B261",
"S. c #A4C36D",
"D. c #A8C36E",
"F. c #35AD5F",
"G. c #084A64",
"H. c #0F5E95",
"J. c #2D678B",
"K. c #416B83",
"L. c #436C82",
"P. c #31688A",
"I. c #126095",
"U. c #02548E",
"Y. c #27834F",
"T. c #46B965",
"R. c #5FBC68",
"E. c #61BC68",
"W. c #45B965",
"Q. c #35AD5E",
"!. c #074055",
"~. c #00528C",
"^. c #005B9B",
"/. c #004474",
"(. c #004270",
"). c #005EA1",
"_. c #005794",
"`. c #004675",
"'. c #26804C",
"]. c #378C4F",
"[. c #0C323C",
"{. c #00355B",
"}. c #003256",
"|. c #003154",
" X c #003C67",
".X c #022D46",
"XX c #185C42",
"oX c #36B261",
"OX c #47B761",
"+X c #214422",
"@X c #040A07",
"#X c #010506",
"$X c #010406",
"%X c #020808",
"&X c #0F301A",
"*X c #31A158",
"=X c #46B35E",
"-X c #378B49",
";X c #2C723D",
":X c #286E3B",
">X c #2A8045",
",X c #32A45A",
"<X c #91E56E",
"1X c #6AD16A",
"2X c #A0ED6F",
"3X c #93E66E",
"4X c #69D16A",
"5X c #92E66E",
"6X c #56C668",
"7X c #92E56E",
"8X c #9FEC6F",
"9X c #A7F070",
"0X c #75D66B",
"qX c #8BE16D",
"wX c #6BD16A",
"eX c #67A961",
/* pixels */
"  . X o O +               @ # $ %                               ",
"  & * = -                 ; : > ,         < & 1 2               ",
"  < - & 2                 3 ; 4 5         - * 6 7               ",
"                                          & = 8 9               ",
"                                          2 - 0 2               ",
"                                                          3 ; @ ",
"                        q w e r t y                       ; : # ",
"% , 5             2 u i p a s d f g h j               k l z x c ",
"$ > 4             v b n m m m m m m M N B V         + ; C Z A S ",
"# : ;         D F G m m m m m m m m m m H J K 1 2   + L P I U Y ",
"@ ; 3         T R m m m m m m m m m m m m E W 6 7     Q 4 ! I ~ ",
"            y ^ m m m m m m m m m m m m m m / ( 9         4 P ) ",
"            _ ` m m m m m m m m m m m m m m ' ] 2         Q L [ ",
"{ 0 <       } | m m  ...m m m m m m m m m m m X.            + o.",
"X * 0       O.m m m +.@.m m m m m m m m m m m #.              $.",
"%.&.*.      =.-.m m ;.:.m m m m m m m m m m m >.              ,.",
"<.9 2       1.2.m m ' 3.m m m m m m m m m m 4.B               5.",
"            6.7.m m m m m m m m m m m m m m 8.t                 ",
"              9.0.q.q.w.m m m m m m m m m e.r.+                 ",
"              t.y.d u.i.m m m m m m m m p.a.s.d.f.              ",
"              f.g.h.j.m m m m m m m m k.l.z.x.c.v.              ",
"                + b.n.m.M.N.n M B.V.C.Z.A.d.S.D.v.    2 & - <   ",
"                    F.G.H.J.K.L.P.I.U.Y.  T.R.E.W.    - = * &   ",
"                    Q.!.~.^./.(.)._.`.'.              0 8 6 1   ",
"                    + ].[.{.}.|. X.XXXoX              2 9 7 2   ",
"                      OX+X@X#X$X%X&X*X                < *.& <   ",
"                      2 =X-X;X:X>X,X                  0 &.= *.+ ",
"      2 - 0 <             Q L ; k                   + O o <X1XO ",
"    + - 6 &.*.            4 P C l                   + O o 2X3Xo ",
"  < & 4X5XX 6X        Q 4 ! I Z z ; 3                 0 &.7X8X9X",
"  & 0X<X2XqX.       + L P I U A x : ;                 < 1 wX<X9X",
"  . qX9X9XqX.       + eX) ~ Y S c # @                     { X 9X"
};
