/* XPM */
static char *b2c5541cc0484857ce03cad682f191c9Y82N8HBXMyGUiVHx[] = {
/* columns rows colors chars-per-pixel */
"32 32 164 2 ",
"   c #1A3237",
".  c #1D3A3A",
"X  c #1B3438",
"o  c #292730",
"O  c #382731",
"+  c #382D31",
"@  c #243235",
"#  c #283639",
"$  c #243D3C",
"%  c #283F3C",
"&  c #2D3936",
"*  c #363F37",
"=  c #393F37",
"-  c #363536",
";  c #572A2C",
":  c #5D302D",
">  c #422E31",
",  c #532C31",
"<  c #463C33",
"1  c #5E3733",
"2  c #602E2E",
"3  c #66332F",
"4  c #6E3831",
"5  c #643739",
"6  c #653839",
"7  c #693D3A",
"8  c #6C3631",
"9  c #2E423D",
"0  c #35443D",
"q  c #3D4239",
"w  c #3A4137",
"e  c #4E4234",
"r  c #534434",
"t  c #5A4935",
"y  c #594838",
"u  c #6F4030",
"i  c #6F433B",
"p  c #764231",
"a  c #7A4432",
"s  c #675336",
"d  c #735C37",
"f  c #7A593C",
"g  c #76633E",
"h  c #252D45",
"j  c #2C354D",
"k  c #393942",
"l  c #353C4F",
"z  c #204B40",
"x  c #374640",
"c  c #384740",
"v  c #384940",
"b  c #3D5845",
"n  c #3E4552",
"m  c #266849",
"M  c #2E6C4A",
"N  c #2C6649",
"B  c #356E4B",
"V  c #28704C",
"C  c #2A784F",
"Z  c #3F744C",
"A  c #4D4B4B",
"S  c #5D5B49",
"D  c #5D5546",
"F  c #4F5153",
"G  c #565A58",
"H  c #685B49",
"J  c #42654A",
"K  c #52674B",
"L  c #47794D",
"P  c #5E704F",
"I  c #67634C",
"U  c #716249",
"Y  c #716C4F",
"T  c #7A714E",
"R  c #736D50",
"E  c #7B7654",
"W  c #836539",
"Q  c #876A38",
"!  c #906D39",
"~  c #96753A",
"^  c #98763A",
"/  c #A27037",
"(  c #AD7C38",
")  c #BC7D3D",
"_  c #8B5251",
"`  c #905753",
"'  c #856F48",
"]  c #9D6958",
"[  c #2F8F57",
"{  c #328E57",
"}  c #369157",
"|  c #34A45E",
" . c #3CA65F",
".. c #36AF61",
"X. c #3BAC60",
"o. c #37B263",
"O. c #38B764",
"+. c #3FBB65",
"@. c #44AD60",
"#. c #50A861",
"$. c #5BAC62",
"%. c #44B463",
"&. c #40BB65",
"*. c #4CBA65",
"=. c #4DB763",
"-. c #66AA61",
";. c #68A861",
":. c #4DC267",
">. c #55C667",
",. c #55C668",
"<. c #6AD16A",
"1. c #75D76B",
"2. c #78D86B",
"3. c #A6813D",
"4. c #B7873A",
"5. c #B88639",
"6. c #BC8E3C",
"7. c #C58A3C",
"8. c #C9933D",
"9. c #CA9A3E",
"0. c #D2A03F",
"q. c #DCA43F",
"w. c #9E975D",
"e. c #9B985D",
"r. c #B98843",
"t. c #BF9340",
"y. c #BF8D5C",
"u. c #A1965D",
"i. c #AB8845",
"p. c #9D9B62",
"a. c #8AA360",
"s. c #A8A26C",
"d. c #B7AE67",
"f. c #B8A562",
"g. c #B6AE70",
"h. c #C09543",
"j. c #C38C5B",
"k. c #CD975F",
"l. c #C2995E",
"z. c #C29559",
"x. c #F3925F",
"c. c #CEA04D",
"v. c #D6AE4F",
"b. c #D9A540",
"n. c #E2AA40",
"m. c #E8AF40",
"M. c #E1A540",
"N. c #E8B040",
"B. c #E9BA52",
"V. c #CE9860",
"C. c #D29760",
"Z. c #C1B770",
"A. c #DCBD71",
"S. c #ECAE69",
"D. c #FCBA6F",
"F. c #8BE26D",
"G. c #92E56E",
"H. c #9FEC6F",
"J. c #A0ED6F",
"K. c #A7F070",
"L. c #D1C26F",
"P. c #CEC273",
"I. c #D8CB78",
"U. c #E7CF76",
/* pixels */
"O.,.F.F.,.O.O.O.O.O.O.O.O.;.y.j.-.O.O.O.O.O.O.O.O.O.O.O.O.O.O.O.",
"O.:.1.1.:.O.O.O.O.O.O.O.O.$.e.w.$.O.O.O.O.&.:.:.+.O.O.O.O.O.O.O.",
"O.&.:.:.+.O.O.O.O.O.O.O.O.%.$.$.%.O.O.O.O.:.1.1.:.O.O.O.O.O.O.O.",
"O.O.O.O.O.O.O.O.O.O.O.O.O.O.O.O.O.O.O.O.O.:.1.2.:.O.O.O.O.O.O.O.",
"O.O.O.O.O.O.O.O.O.O.O.O.O.O.O.O.O.O.O.O.O.+.:.:.+.O.O.O.O.O.O.O.",
"O.O.O.O.O.O.O.O.O.O.O.O.O.O.O.O.O.O.O.O.O.O.O.O.O.O.O.O.O.%.$.;.",
"O.O.O.O.O.O.O.O.O.o...O.O.O.O.O.O.O.O.O.O.o.O.O.O.O.O.O.O.$.e.y.",
"-.$.%.O.O.O.O.O.O.} B =.*.*.o...........| N | O.O.O.O.%.$.a.k.x.",
"j.w.$.O.O.O.O.O.{ P p.v 0 9 % $ $ $ $ $ b p.J | O.O.O.$.u.C.S.D.",
"y.e.$.O.O.O.O.[ K L.A.` _ _ _ _ _ _ _ _ ] U.d.b X.O.O.$.w.V.S.D.",
";.$.%.O.O.O.O.z y B.c.i 7 5 6 7 7 5 6 7 f B.v.q @.O.O.%.$.a.V.x.",
"O.O.O.O.O.O.O.  t n.q.4./ 8 a 5.( 4 p ( 6.n.9.w @.O.O.O.O.$.w.j.",
"O.O.O.O.O.O.O.  o t t t r O t n.8.> + t t t e @  .O.O.O.O.%.$.-.",
">.:.&.O.O.O.O.  < 3.3.3.3.W r b.6.< ~ 3.3.3.^ & | O.O.O.O.O.O.O.",
"F.1.:.O.O.O.O.  t h.U U U D k t y k H U U ' t.* | O.O.O.O.O.O.O.",
"F.1.:.O.O.O.O.X t i.l j j j j h h j j j j A r.* | O.O.O.O.O.O.O.",
",.:.+.O.O.O.O.. D f.l j j j j j j j j j j F f.0 | O.O.O.O.O.O.O.",
"O.O.O.O.O.O.O.. S g.n l l l l l l l l l l G Z.c | O.O.O.O.O.O.O.",
"O.O.O.O.O.O.O.. S I.s.s.s.s.s.s.s.s.s.s.s.g.P.x | O.O.O.O.O.O.O.",
"O.O.O.O.O.O.O.. - Y R R R R R R R R R R R R I #  .O.O.O.O.O.O.O.",
"O.O.O.O.O.O.O.. - ~ W , , , , , , , , , 1 ! Q - #.O.O.O.O.O.O.O.",
"O.O.O.O.O.O.O.. t m.8.: ; ; ; ; ; ; ; ; u q.0.q #.O.O.+.:.:.&.O.",
"O.O.O.O.O.O.O.. t N.8.3 2 2 2 2 2 2 2 2 p q.0.=  .O.O.:.1.1.:.O.",
"O.O.O.O.O.O.O.. t m.M.) r.z.l.l.l.l.z.) 7.m.0.* | O.O.:.2.1.:.O.",
"O.O.O.O.O.O.O.. + d d d g E E E E E T d d d s @ | O.O.+.:.:.+.O.",
"O.O.O.O.O.O.O.C m m m M Z L L Z M m m m m m m V ..O.O.&.:.:.&.O.",
"O.O.O.O.O.O.O.O.O.O.O.+.:.>.>.:.+.O.O.O.O.O.O.O.O.O.O.:.1.1.:.O.",
"O.O.O.+.:.:.&.O.O.O.O.O.O.%.$.$.%.O.O.O.O.O.O.O.O.O.O.,.F.G.<.,.",
"O.O.O.:.1.1.:.O.O.O.O.O.O.$.w.u.$.O.O.O.O.O.O.O.O.O.O.,.F.J.G.F.",
"O.&.:.<.G.F.,.O.O.O.O.%.$.a.V.C.a.$.%.O.O.O.O.O.O.O.O.:.1.G.H.K.",
"O.:.1.G.J.F.,.O.O.O.O.$.w.V.S.S.k.e.$.O.O.O.O.O.O.O.O.&.:.<.G.K.",
"O.,.F.K.K.F.,.O.O.O.O.-.j.x.D.D.x.y.;.O.O.O.O.O.O.O.O.O.O.>.F.K."
};
