/* XPM */
static char *_7bae2ece41a401cc1454b5d931733acZBABEBR1whgZkPN4[] = {
/* columns rows colors chars-per-pixel */
"32 32 246 2 ",
"   c #38B764",
".  c #56C768",
"X  c #8AE16D",
"o  c #8CE26E",
"O  c #54C668",
"+  c #39B764",
"@  c #68A861",
"#  c #BF8D5C",
"$  c #C48B5B",
"%  c #64AA61",
"&  c #4DC267",
"*  c #74D66A",
"=  c #74D66B",
"-  c #4CC267",
";  c #5BAC62",
":  c #9A985D",
">  c #9D975D",
",  c #58AE62",
"<  c #40BB65",
"1  c #4FC367",
"2  c #50C367",
"3  c #4DC266",
"4  c #3FBB65",
"5  c #44B363",
"6  c #5AAD62",
"7  c #43B464",
"8  c #4EC267",
"9  c #75D76B",
"0  c #77D86B",
"q  c #4CC166",
"w  c #75D66B",
"e  c #77D76B",
"r  c #45B363",
"t  c #5CAC62",
"y  c #6AA861",
"u  c #36B060",
"i  c #379A56",
"p  c #479457",
"a  c #4E9358",
"s  c #36AF60",
"d  c #9C985D",
"f  c #C18D5B",
"g  c #66A961",
"h  c #44B463",
"j  c #48B460",
"k  c #5F9559",
"l  c #A69B6E",
"z  c #E7C290",
"x  c #F9D09A",
"c  c #FFD59E",
"v  c #F9D09B",
"b  c #E5C18F",
"n  c #A69B6F",
"m  c #579159",
"M  c #36AC5E",
"N  c #43B463",
"B  c #8AA360",
"V  c #CD975F",
"C  c #F4915F",
"Z  c #C68B5B",
"A  c #A0965D",
"S  c #5DAC62",
"D  c #4B9A57",
"F  c #B6A776",
"G  c #FCD39C",
"H  c #FCD29C",
"J  c #B5A677",
"K  c #3E9656",
"L  c #A2965D",
"P  c #D39760",
"I  c #EDAE69",
"U  c #FCBB6F",
"Y  c #BD8E5C",
"T  c #429556",
"R  c #D4B886",
"E  c #CFB684",
"W  c #59A15B",
"Q  c #59AD62",
"!  c #CC9860",
"~  c #EAAC68",
"^  c #FBB76D",
"/  c #36AA5D",
"(  c #B9A977",
")  c #6BC362",
"_  c #CD9860",
"`  c #F3925F",
"'  c #5A9159",
"]  c #FDD39D",
"[  c #7A995B",
"{  c #C08D5B",
"}  c #37B261",
"|  c #9F966B",
" . c #B4A576",
".. c #3DB763",
"X. c #65AA62",
"o. c #339F58",
"O. c #D8B787",
"+. c #B49770",
"@. c #E6C08E",
"#. c #C5A47A",
"$. c #D4B184",
"%. c #DEBC8B",
"&. c #33A259",
"*. c #8BE16D",
"=. c #329753",
"-. c #EBC592",
";. c #6D5B43",
":. c #CCAA7E",
">. c #8D7657",
",. c #AC906B",
"<. c #ECC693",
"1. c #319B55",
"2. c #76D76B",
"3. c #4EC367",
"4. c #339E57",
"5. c #DAB888",
"6. c #7C684D",
"7. c #D1AF82",
"8. c #987F5F",
"9. c #DFBD8C",
"0. c #32A158",
"q. c #52C568",
"w. c #4BC166",
"e. c #37B262",
"r. c #EDC693",
"t. c #F1C995",
"y. c #F5CD98",
"u. c #B2A476",
"i. c #37B462",
"p. c #5F935A",
"a. c #FBD29C",
"s. c #FAD19B",
"d. c #628E5A",
"f. c #54AC5F",
"g. c #C5AA7B",
"h. c #C8A77C",
"j. c #D5B284",
"k. c #B6A778",
"l. c #36A55B",
"z. c #5BBB67",
"x. c #819959",
"c. c #DBBA88",
"v. c #FED49E",
"b. c #FDD49D",
"n. c #D4B786",
"m. c #669B5B",
"M. c #60BC68",
"N. c #45B865",
"B. c #44B865",
"V. c #5CBB67",
"C. c #599B5A",
"Z. c #AEA274",
"A. c #B1A375",
"S. c #649E5B",
"D. c #A6C26D",
"F. c #ABC46E",
"G. c #39A85D",
"H. c #5B7A56",
"J. c #A4987F",
"K. c #DEBB8C",
"L. c #F6CD98",
"P. c #FED49D",
"I. c #F6CE99",
"U. c #DDBA8B",
"Y. c #A4957A",
"T. c #5E8456",
"R. c #5EBB67",
"E. c #A3C36D",
"W. c #A7C36E",
"Q. c #34AA5D",
"!. c #0D4F5A",
"~. c #045E9D",
"^. c #1A6292",
"/. c #31688A",
"(. c #3A6A87",
"). c #196192",
"_. c #045995",
"`. c #19644D",
"'. c #35AB5E",
"]. c #5EBB68",
"[. c #5FBC68",
"{. c #1E7558",
"}. c #074A65",
"|. c #093B45",
" X c #004F87",
".X c #005A9A",
"XX c #005EA1",
"oX c #005DA0",
"OX c #005796",
"+X c #00497E",
"@X c #0C3E3B",
"#X c #04486F",
"$X c #2B9257",
"%X c #298E58",
"&X c #196957",
"*X c #409C55",
"=X c #18413D",
"-X c #003155",
";X c #003D68",
":X c #003D69",
">X c #003C67",
",X c #012C4A",
"<X c #104639",
"1X c #2D9554",
"2X c #156258",
"3X c #31A35C",
"4X c #448342",
"5X c #0A140B",
"6X c #020606",
"7X c #010405",
"8X c #010606",
"9X c #06130B",
"0X c #23703D",
"qX c #4BBE65",
"wX c #409D52",
"eX c #307B41",
"rX c #286E3B",
"tX c #277640",
"yX c #2E9551",
"uX c #37B362",
"iX c #91E56E",
"pX c #6BD16A",
"aX c #56C668",
"sX c #9E975D",
"dX c #A0EC6F",
"fX c #94E66E",
"gX c #8DE36E",
"hX c #6AD16A",
"jX c #92E66E",
"kX c #8DA260",
"lX c #CE9860",
"zX c #D29860",
"xX c #9FEC6F",
"cX c #A7F070",
"vX c #92E56E",
"bX c #A0ED6F",
"nX c #CF9860",
"mX c #ECAD69",
"MX c #CE975F",
"NX c #6AD169",
"BX c #67A961",
"VX c #C28C5B",
"CX c #F3935F",
"ZX c #FCB86E",
"AX c #F3915F",
"SX c #55C667",
/* pixels */
"  . X o O +               @ # $ %                               ",
"  & * = -                 ; : > ,         < 1 2 <               ",
"  < 3 & 4                 5 6 ; 7         8 9 0 q               ",
"                                          8 w e q               ",
"                                          4 q 3 4               ",
"                                                          r t y ",
"                        u i p a p i s                   + t d f ",
"g 6 h             < j k l z x c v b n m M             N 6 B V C ",
"Z A S             D F G c c c c c c c H J K         + t L P I U ",
"Y : ;           T R c c c c c c c c c c c E W 2 <   + Q d ! ~ ^ ",
"g 6 5         / J c c c c c c c c c c c c c ( ) q     h ; B _ ` ",
"              ' ] c c c c c c c c c c c c c G [ q         ; d { ",
"            } | c c c c c c c c c c c c c c c  ...        h Q X.",
". 8 <       o.O.c c c c +.@.c c c #.$.c c c c %.&.            + ",
"*.w 8       =.-.c c c c ;.:.c c c >.,.c c c c <.1.              ",
"o 2.3.      4.5.c c c c 6.7.c c c 8.+.c c c c 9.0.              ",
"q.w.4       e.| c c c c r.x c c c t.y.c c c c u.i.              ",
"              p.a.c c c c c c c c c c c c c s.d.                ",
"              f.g.c c c c r.h.h.j.c c c c c k.l.                ",
"              z.x.c.c c c v.] ] b.c c c c n.m.M.N.              ",
"              B.V.C.Z.H c c c c c c c a.A.S.D.F.V.              ",
"                +   G.H.J.K.L.P.I.U.Y.T.G.R.E.W.z.    < 3.3.<   ",
"                  i.Q.!.~.^./.(./.)._.`.'.N.].[.B.    & 2.w 8   ",
"                  {.}.|. X.XXXXXoXOX+X@X#X$X          3 e 2.3.  ",
"                  %X&X*X=X-X;X:X>X,X<X1X2X3X          4 w.w.4   ",
"                      q 4X5X6X7X8X9X0X                < 1 1 <   ",
"                      4 qXwXeXrXtXyXuX                3 e 2.1 + ",
"      4 8 3 <             r ; S N                   + O o iXpXaX",
"    + & 0 2.1           + t sXL 6                   + O o dXfXgX",
"  < 1 hXjXX aX        r S kXlXzXB t r                 3 w iXxXcX",
"  8 2.vXbX*..       + 6 sXnXmXI MXd t                 4 8 NXiXcX",
"  . *.cXcX*..       + BXVXCXZXU AX# @                     SXX cX"
};
