/* XPM */
static char *_a8ee7d03ca44c40b34612a61586564fhKPkhKneyhQHVvZz[] = {
/* columns rows colors chars-per-pixel */
"32 32 234 2 ",
"   c #38B764",
".  c #56C768",
"X  c #8AE16D",
"o  c #8CE26E",
"O  c #54C668",
"+  c #39B764",
"@  c #68A861",
"#  c #BF8D5C",
"$  c #C48B5B",
"%  c #64AA61",
"&  c #4DC267",
"*  c #74D66A",
"=  c #74D66B",
"-  c #4CC267",
";  c #5BAC62",
":  c #9A985D",
">  c #9D975D",
",  c #58AE62",
"<  c #40BB65",
"1  c #4FC367",
"2  c #50C367",
"3  c #4DC266",
"4  c #3FBB65",
"5  c #44B363",
"6  c #5AAD62",
"7  c #43B464",
"8  c #4EC267",
"9  c #75D76B",
"0  c #77D86B",
"q  c #4CC166",
"w  c #75D66B",
"e  c #77D76B",
"r  c #45B363",
"t  c #5CAC62",
"y  c #6AA861",
"u  c #38B664",
"i  c #35AC5E",
"p  c #32A359",
"a  c #32A459",
"s  c #35AE5F",
"d  c #9C985D",
"f  c #C18D5B",
"g  c #66A961",
"h  c #44B463",
"j  c #4FB962",
"k  c #599959",
"l  c #869363",
"z  c #B3A074",
"x  c #D1B082",
"c  c #CFAF81",
"v  c #AD9E71",
"b  c #7E9161",
"n  c #479457",
"m  c #36B060",
"M  c #43B463",
"N  c #8AA360",
"B  c #CD975F",
"V  c #F4915F",
"C  c #C68B5B",
"Z  c #A0965D",
"A  c #5DAC62",
"S  c #4EC065",
"D  c #6AA35A",
"F  c #C0AC7A",
"G  c #FBD29C",
"H  c #FFD59E",
"J  c #F8D09A",
"K  c #ADA274",
"L  c #419656",
"P  c #38B663",
"I  c #A2965D",
"U  c #D39760",
"Y  c #EDAE69",
"T  c #FCBB6F",
"R  c #BD8E5C",
"E  c #37B563",
"W  c #6E9B60",
"Q  c #E0BE8C",
"!  c #D4B786",
"~  c #67A05F",
"^  c #4FC266",
"/  c #59AD62",
"(  c #CC9860",
")  c #EAAC68",
"_  c #FBB76D",
"`  c #479356",
"'  c #DDBC8A",
"]  c #D0B483",
"[  c #68AF5C",
"{  c #CD9860",
"}  c #F3925F",
"|  c #36AF60",
" . c #B4A577",
".. c #A6A16E",
"X. c #4ABE64",
"o. c #C08D5B",
"O. c #439556",
"+. c #F8CF9A",
"@. c #EDC693",
"#. c #3E9E58",
"$. c #65AA62",
"%. c #6A935E",
"&. c #E3BE8D",
"*. c #EFC894",
"=. c #56935A",
"-. c #8BE16D",
";. c #7D9262",
":. c #9D8462",
">. c #C8A77C",
",. c #6A955F",
"<. c #76D76B",
"1. c #4EC367",
"2. c #7A9261",
"3. c #957D5C",
"4. c #C3A379",
"5. c #66955E",
"6. c #52C568",
"7. c #4BC166",
"8. c #5D935B",
"9. c #DCB888",
"0. c #EBC492",
"q. c #FDD49D",
"w. c #4A9356",
"e. c #439D58",
"r. c #E8C491",
"t. c #D6B887",
"y. c #36A55B",
"u. c #5AB966",
"i. c #A79A6A",
"p. c #F3CA96",
"a. c #E3BD8D",
"s. c #EAC491",
"d. c #779160",
"f. c #5BBB67",
"g. c #8CA85F",
"h. c #C5AA7B",
"j. c #F1C995",
"k. c #DFBB8B",
"l. c #DEB98A",
"z. c #9E9166",
"x. c #5BAD60",
"c. c #45B865",
"v. c #44B865",
"b. c #5DBB68",
"n. c #5CA25D",
"m. c #AA9F71",
"M. c #FDD39D",
"N. c #A69A6C",
"B. c #A2AF65",
"V. c #ABC46E",
"C. c #5CBB67",
"Z. c #3BA75D",
"A. c #789760",
"S. c #C9AC81",
"D. c #F5CD98",
"F. c #BFA67B",
"G. c #66945E",
"H. c #5CAE61",
"J. c #A2C36D",
"K. c #A7C36E",
"L. c #3A9756",
"P. c #0F5482",
"I. c #3D6C87",
"U. c #687D82",
"Y. c #7F8780",
"T. c #7E8680",
"R. c #647B83",
"E. c #366988",
"W. c #114E63",
"Q. c #45B965",
"!. c #5EBB68",
"~. c #5FBC68",
"^. c #308452",
"/. c #004F87",
"(. c #005FA2",
"). c #0064AA",
"_. c #004E85",
"`. c #004A7F",
"'. c #0062A7",
"]. c #005A9B",
"[. c #03456A",
"{. c #33A85C",
"}. c #4AB35F",
"|. c #164344",
" X c #003C67",
".X c #004677",
"XX c #00355A",
"oX c #00355B",
"OX c #004372",
"+X c #013659",
"@X c #185C43",
"#X c #5EB159",
"$X c #102015",
"%X c #00101B",
"&X c #00101C",
"*X c #000C14",
"=X c #0C2918",
"-X c #34A85C",
";X c #4BBF65",
":X c #358546",
">X c #1E4F2B",
",X c #14391F",
"<X c #133A20",
"1X c #19512C",
"2X c #298649",
"3X c #38B563",
"4X c #5CAB61",
"5X c #43B363",
"6X c #91E56E",
"7X c #6BD16A",
"8X c #56C668",
"9X c #9E975D",
"0X c #A0EC6F",
"qX c #94E66E",
"wX c #8DE36E",
"eX c #6AD16A",
"rX c #92E66E",
"tX c #8DA260",
"yX c #CE9860",
"uX c #D29860",
"iX c #9FEC6F",
"pX c #A7F070",
"aX c #92E56E",
"sX c #A0ED6F",
"dX c #CF9860",
"fX c #ECAD69",
"gX c #CE975F",
"hX c #6AD169",
"jX c #67A961",
"kX c #C28C5B",
"lX c #F3935F",
"zX c #FCB86E",
"xX c #F3915F",
"cX c #55C667",
/* pixels */
"  . X o O +               @ # $ %                               ",
"  & * = -                 ; : > ,         < 1 2 <               ",
"  < 3 & 4                 5 6 ; 7         8 9 0 q               ",
"                                          8 w e q               ",
"                                          4 q 3 4               ",
"                                                          r t y ",
"                          u i p a s                     + t d f ",
"g 6 h             < & j k l z x c v b n m             M 6 N B V ",
"C Z A             S D F G H H H H H H J K L P       + t I U Y T ",
"R : ;           E W Q H H H H H H H H H H ! ~ ^ <   + / d ( ) _ ",
"g 6 5           ` ' H H H H H H H H H H H H ] [ q     h ; N { } ",
"              |  .H H H H H H H H H H H H H H ..X.        ; d o.",
"              O.+.H H H H H H H H H H H H H H @.#.        h / $.",
". 8 <         %.H H H H H H H H H H H &.*.H H H =.            + ",
"-.w 8         ;.H H H H H H H H H H H :.>.H H H ,.              ",
"o <.1.        2.H H H H H H H H H H H 3.4.H H H 5.              ",
"6.7.4         8.H H H H H H H H H H H 9.0.H H q.w.              ",
"              e.r.H H H H H H H H H H H H H H t.y.              ",
"              u.i.q.H H H H H H H H H p.a.a.s.d.u               ",
"              f.g.h.H H H H H H H H H j.k.l.z.x.c.              ",
"              v.b.n.m.M.H H H H H H H H G N.B.V.C.              ",
"                +   Z.A.S.+.H H H H D.F.G.H.J.K.f.    < 1.1.<   ",
"                    + L.P.I.U.Y.T.R.E.W.s Q.!.~.v.    & <.w 8   ",
"                    + ^./.(.)._.`.'.].[.{.            3 e <.1.  ",
"                    + }.|. X.XXXoXOX+X@Xu             4 7.7.4   ",
"                      - #X$X%X&X%X*X=X-X              < 1 1 <   ",
"                      4 ;X:X>X,X<X1X2X3X              3 e <.1 + ",
"      4 8 3 <             r ; 4X5X                  + O o 6X7X8X",
"    + & 0 <.1           + t 9XI 6                   + O o 0XqXwX",
"  < 1 eXrXX 8X        r A tXyXuXN t r                 3 w 6XiXpX",
"  8 <.aXsX-..       + 6 9XdXfXY gXd t                 4 8 hX6XpX",
"  . -.pXpX-..       + jXkXlXzXT xX# @                     cXX pX"
};
