/* XPM */
static char *_efecfd910454e25f00a876885855417qpgi4O2mZumfL3IZ[] = {
/* columns rows colors chars-per-pixel */
"32 32 128 2 ",
"   c #29366F",
".  c #2A3E6E",
"X  c #293A70",
"o  c #2B406F",
"O  c #2C4E6D",
"+  c #31426F",
"@  c #2D556D",
"#  c #2D596D",
"$  c #3F576F",
"%  c #345B6D",
"&  c #284472",
"*  c #274E73",
"=  c #294B71",
"-  c #314D71",
";  c #275674",
":  c #295572",
">  c #275A75",
",  c #2A5E72",
"<  c #3F5B70",
"1  c #2E656D",
"2  c #2F696B",
"3  c #306E6A",
"4  c #30716A",
"5  c #38766B",
"6  c #317D69",
"7  c #266377",
"8  c #286074",
"9  c #276B76",
"0  c #2A6F73",
"q  c #266778",
"w  c #256E79",
"e  c #3F6A71",
"r  c #2A7273",
"t  c #2A7A74",
"y  c #257279",
"u  c #317A73",
"i  c #3F7B75",
"p  c #40576F",
"a  c #415A6F",
"s  c #425F70",
"d  c #43636F",
"f  c #4A676F",
"g  c #4B686F",
"h  c #44736D",
"j  c #457C6D",
"k  c #328469",
"l  c #318B6B",
"z  c #3A8A69",
"x  c #359767",
"c  c #359C67",
"v  c #349568",
"b  c #349A68",
"n  c #2A8374",
"m  c #2D8B71",
"M  c #2D9070",
"N  c #36A066",
"B  c #3DA367",
"V  c #37AF65",
"C  c #34A46A",
"Z  c #3DA268",
"A  c #35AA68",
"S  c #37B265",
"D  c #38B764",
"F  c #3FBB65",
"G  c #58836F",
"H  c #5A856F",
"J  c #5A856F",
"K  c #479F69",
"L  c #6D9B70",
"P  c #6E9B70",
"I  c #6F9D70",
"U  c #709E70",
"Y  c #709F70",
"T  c #709F70",
"R  c #48A069",
"E  c #49A069",
"W  c #4AA069",
"Q  c #4AA269",
"!  c #4AA269",
"~  c #4BAA69",
"^  c #4CAA69",
"/  c #4BAB6A",
"(  c #4CB967",
")  c #4DBA67",
"_  c #4BBA68",
"`  c #4CB968",
"'  c #4DB968",
"]  c #4DBA68",
"[  c #6EA36F",
"{  c #6FA56F",
"}  c #71A66F",
"|  c #71A76F",
" . c #70B36E",
".. c #71B46E",
"X. c #72B56E",
"o. c #72B66E",
"O. c #73B66E",
"+. c #71B56E",
"@. c #71BD6D",
"#. c #72BD6D",
"$. c #73BE6D",
"%. c #72BF6D",
"&. c #73BB6E",
"*. c #6EA772",
"=. c #71A170",
"-. c #71AC72",
";. c #4CC166",
":. c #4CC167",
">. c #4DC266",
",. c #4FC367",
"<. c #54C668",
"1. c #60C569",
"2. c #62C469",
"3. c #62C469",
"4. c #76C16D",
"5. c #7AC16E",
"6. c #7AC26E",
"7. c #7BC36E",
"8. c #7CC46E",
"9. c #7AC26E",
"0. c #74CD6C",
"q. c #74CD6C",
"w. c #77D76B",
"e. c #78D86B",
"r. c #86BF70",
"t. c #87C070",
"y. c #8AC570",
"u. c #8CE26E",
/* pixels */
"D D D D D D D D D D D x @         & 7 n C D D b @ # x C n y y y ",
"C C C C C C b x x x x 6 O o O # # # 8 r v C C l , 1 b A M t y y ",
"n n n n n t 1 # # # # O . O 6 x x k # : r n n t 9 t C S A v t y ",
"n n n n n r : & & & X     O 6 x x k 2 1 t t 9 7 7 r l x x l r 7 ",
"C C C C C v r 7 7 ; &     . O @ @ 2 k b C l # & & = @ @ @ @ = & ",
"x c V D D C t 7 7 > * & & = @ # # 2 k x x z h d % # # # # O .   ",
"# 4 c D D b 1 & & * > 7 7 0 l x x k 2 # # h [ o.K x x x x 6 O   ",
"@ 2 k b b k 2 O . & > 7 7 r l b b z h p + a Y 4._ D D D D c 3 @ ",
"b k 2 @ @ 2 k k O X & & & = @ @ @ h } =.a + $ h Z D D D D V N b ",
"x 6 O + a j Z N 3 # # @ . . O # # j #.#.j @ = # k x x x x x x x ",
"# O o a I #.' V c x x 6 O @ 6 x x Z ) ) Z l r 8 # # # # # # # # ",
"@ @ @ h } o.Q c S D D c 3 2 k x x c V S A b t q * & X           ",
"x x x z h d % 3 N D D V c k 2 @ @ 4 c A M t y w 7 ; &           ",
"x x x 6 O     O 6 x x x x k # & & # k l t y y w 7 ; & + a d % # ",
"# # # @ .     . @ # # # # # , 7 7 , # # 9 y y q : & X a I  .Q x ",
"@ @ @ @ @ @ = = @ @ @ O . & ; 7 7 ; & & > 7 7 > & + p G 6.w.>.D ",
"b b b b b l r r l b b 6 O X & & & & X   & & & & X a Y 8.2.>.F D ",
"D D D D D C t r v C b 6 O + a d % # # # # # # @ . a P o.Q x x x ",
"D D D D D b 1 : r t 1 @ . a P o.Q x x x x x x 6 O + a d % # # # ",
"x b C C C v 2 1 t 0 = + a H 6.e.>.D D V c x x l 2 @ @ @ @ O .   ",
"@ 1 r n n m v b C l @ a Y 6.2.>.F D D c 3 @ @ 2 l x x x x 6 @   ",
"& * > 7 7 t C D D c 4 j #.0.^ x x x x k 2 # # 2 k x x c V Z j f ",
"7 > * & & 1 b D D V c Z ' ~ 5 # # # # 2 k x x k 2 # # 4 N ' #.r.",
"n u e < - # k N S D D S A v 2 @ @ @ @ 3 c S A l , & & # k ! &.y.",
"C / #.-.i 8 # 2 N D D A m m v b b b b N S A M t 9 7 7 , # % a d ",
"x Q o.*.i ; & O 6 x x l 0 t C D D V c x x l 0 7 7 9 t t 1 @ .   ",
"# % d s - & X . @ # # @ = 1 b D D c 4 # # @ = & & , l C b 6 @   ",
"@ @ @ @ @ @ @ @ @ % d a + # x S A l , & & & & & & # k x x k # & ",
"x x x x x x x x x Q o.Y a # x A m t 9 7 7 7 7 7 7 , # @ @ # , 7 ",
"x x x x x x x x x ~ 0.6.H h z v m n n t 9 7 7 9 t 0 = X & * > 7 ",
"# # # # # # # # # 5 ^ 2.6.{ h 2 v C C l , & & , l l @ & ; > * & ",
"                  # x <.u.t.g @ b D D x @     @ b x # & 7 7 &   "
};
