/* XPM */
static char *xpm_[] = {
/* columns rows colors chars-per-pixel */
"32 32 165 2 ",
"   c #1A1C16",
".  c #151C19",
"X  c #1C1D1B",
"o  c #201F1A",
"O  c #1C251F",
"+  c #25251C",
"@  c #29271C",
"#  c #2C291E",
"$  c #362B1E",
"%  c #1B2520",
"&  c #202721",
"*  c #252A22",
"=  c #2B2D23",
"-  c #333125",
";  c #3D3424",
":  c #3E3826",
">  c #3F3829",
",  c #542F1F",
"<  c #423726",
"1  c #423927",
"2  c #463429",
"3  c #4D372C",
"4  c #433A28",
"5  c #4D3E2B",
"6  c #523425",
"7  c #533728",
"8  c #58352A",
"9  c #533B2E",
"0  c #5D3C2A",
"q  c #423E34",
"w  c #4C3A35",
"e  c #4F3F39",
"r  c #613726",
"t  c #623C34",
"y  c #693E37",
"u  c #4D402B",
"i  c #57472F",
"p  c #58472F",
"a  c #4F4337",
"s  c #47443A",
"d  c #4C443C",
"f  c #5F4534",
"g  c #53473E",
"h  c #5A513A",
"j  c #654332",
"k  c #6C4634",
"l  c #624F37",
"z  c #62493C",
"x  c #6C4C3B",
"c  c #704332",
"v  c #704835",
"b  c #73423C",
"n  c #734C3C",
"m  c #7A4D3E",
"M  c #63563D",
"N  c #6D503F",
"B  c #74503D",
"V  c #79533F",
"C  c #4F4C45",
"Z  c #744E40",
"A  c #7D4E41",
"S  c #6D5343",
"D  c #6F564D",
"F  c #6E584A",
"G  c #745444",
"H  c #7B5444",
"J  c #755D42",
"K  c #7C5846",
"L  c #7D5749",
"P  c #765B4B",
"I  c #7B5C4B",
"U  c #7F5E50",
"Y  c #7A604F",
"T  c #7C6444",
"R  c #7D6252",
"E  c #814E3B",
"W  c #814F44",
"Q  c #825345",
"!  c #895247",
"~  c #805A46",
"^  c #86564A",
"/  c #8C564B",
"(  c #835B4B",
")  c #8B5B4D",
"_  c #94564C",
"`  c #94594E",
"'  c #98584F",
"]  c #855E51",
"[  c #8C5D51",
"{  c #945C52",
"}  c #9D5B53",
"|  c #84614D",
" . c #89614E",
".. c #836454",
"X. c #8C6454",
"o. c #856856",
"O. c #886856",
"+. c #8E6659",
"@. c #866B5B",
"#. c #8B6B5B",
"$. c #936355",
"%. c #9C6057",
"&. c #9D6156",
"*. c #9A6257",
"=. c #906956",
"-. c #946358",
";. c #976659",
":. c #94655A",
">. c #9B6258",
",. c #9A6458",
"<. c #9B655B",
"1. c #98665B",
"2. c #9F665D",
"3. c #9C655B",
"4. c #936A5A",
"5. c #95695D",
"6. c #936B5B",
"7. c #996B5A",
"8. c #9A695C",
"9. c #9E685D",
"0. c #9B6B5C",
"q. c #94715F",
"w. c #A06158",
"e. c #A0635B",
"r. c #A1635B",
"t. c #A16B5E",
"y. c #916E61",
"u. c #9F6B61",
"i. c #996F63",
"p. c #9D6D62",
"a. c #8A7060",
"s. c #8F7161",
"d. c #8E7465",
"f. c #937263",
"g. c #927364",
"h. c #937666",
"j. c #947362",
"k. c #9E7062",
"l. c #9C7564",
"z. c #9A7263",
"x. c #9B7964",
"c. c #9D7967",
"v. c #9A7568",
"b. c #9A776B",
"n. c #9D766A",
"m. c #93786A",
"M. c #967B6E",
"N. c #997B6A",
"B. c #9D7A68",
"V. c #9E7C69",
"C. c #9C7D6E",
"Z. c #9C7D6C",
"A. c #937C71",
"S. c #9C7F71",
"D. c #A46A62",
"F. c #A06F61",
"G. c #A07366",
"H. c #A77D72",
"J. c #9E8071",
"K. c #9D8273",
"L. c #A18475",
"P. c #A78377",
"I. c #A58679",
"U. c #A78979",
"Y. c #AB8F83",
/* pixels */
"} V n x j ` } 4.*.a.O.@.I #.I P Y P x l K  .L.8.} } ) { } } ' } ",
"v A V x G P } } } =.V...G V G G S G S R @.#.$.~ / ..' } } } ' _ ",
"/ ) #.( z ` / ` ) X.D.=.{ } K x P x ..m.N.h. .K m H ( ' x [ H ` ",
"{ 4.3.{ x / } ' n X.l.' &.} ..V P R R @.X.x.O.Q I | G ' ^ A S n ",
"R g.o.{ } } } } ` &.G.} ,.*.X.x L ( ..#.4.} } _ X.D K ) } L ] ) ",
"S.1.s.} } } } w.$.} H.w.5.$.n Z H S ..s.U.N.} w.) @.@.9.} { } D.",
"v.} ) { i.f.#.X.$.} p.3.} H K { { S K ..S.N.,.( ] R [ } ^ $.} w.",
"} { } ) ^ ^ x.| ..w w d d e q d d s q d C D ( S [ { } A G [ } } ",
"} U ` ! } } #.O.G X @ * % % % % % % * % & C $.[ o.{ _ / n Q } } ",
"` ( b / $.o.-.K ) X . = % % % % % = u u 5 M G ] ) { / } / H 2.3.",
"G L ( { *.6.:./ -.o . * % % % % - 5 4 = - V $ P Q +.-.8.} ! X. .",
"j G U ) X.3.#.~ [ X . % % = % = u 4 * % % h $ G ^ a.I.-.=.....n ",
"_ _ o.S P R ! H G X . O O % % ; u * O % - V $ j v ( &.3.@.O.` ! ",
"} } [ K v z n y x X + 1 % % ; # 4 4 * 4 5 T $ , r c Q } 6.} H ) ",
"[ } H H / Q ' D S   * 5 4 : @   + u 4 4 : h $ 6 V m n V ! } ) =.",
"6.6.( F Z } ! ) x   # 9 u 5 @ +   : = % % h $ 6 A n L H / 0.$.} ",
"3.G.M.I ..} } ! A X # 5 5 5 5 4 < 4 - ; : h $ 7 0 n } ' X.M.) } ",
"9.j.j.S.[ } } ` ! o # 5 u 4 : ; 4 5 5 5 5 T $ Z Q Q q.8.j.O.} F.",
"F.c.-.+.$.G ^ } ,.X # 5 ; * % % = - : 5 u J $ O.0. .4...K.S.} } ",
"} } 2.0.$.b.X.4.d.X + $ # % % % % % % : 3 h $ M.g.V.z.q.n.P.} } ",
"/ } } $.#.6.8.9.[ X   # O O O + & % % % % M $ D a.J.Z.,.3.g.X.[ ",
"v ! } } 2.} t.6.^ X + 2 O + @ $ $ # % O ; J $ S $.=.j.8.{ L H V ",
"S A } { } } 9.H ) o ; p 5 ; < ; ; ; $ 5 p T $ n ` x.q.~ K ' n ..",
"x v } } } 8.} } { a l l l l l l l l l l M l 3 W { ,.4.X.^ } ` G ",
"Z } ` } } 6.} u.M.) b 9 2 t y b y 8 t 2 S 6 Q } } ] } p.1.} } n ",
"L } X.p.3.$.) p.K.} { R S K ! } ! x } ^ U S ( } } { [ +.} } } G ",
"K ) n.} +...} 2.j.) -.R G W { 3.H S ` { U P I { } } [ ..] } [ } ",
"$.` ` / ) Q 1.y.#. ./ ( G ` { +.` $.{ x S x  .} } } / P n / Q } ",
"} } ` ..L } [ I ( { { Q [ #.} w.2. .R I G n  . .:.} ( K ^ _ ) ' ",
"} } { 4.+.{ v.3.{ _ Z G ..$.[ o.Q ) o.P x ) ` ` V.0.X.J ` :.w.} ",
"4.$.t.O./ } [ z.[ } Q Q ` #.I P l P S B H X.z.,.9.4. .` } 8.O.} ",
"6.,.O.H ! } 3.} } { } } w.Y.~ R S G Y I G ~ I.p.*.-.R ' } ' H ) "
};
