/* XPM */
static char *xpm_[] = {
/* columns rows colors chars-per-pixel */
"32 32 139 2 ",
"   c #5A3423",
".  c #5C3B2A",
"X  c #643726",
"o  c #6D3F2F",
"O  c #5F4534",
"+  c #634433",
"@  c #6C4533",
"#  c #604738",
"$  c #654B3B",
"%  c #6C4C3B",
"&  c #744434",
"*  c #7C4537",
"=  c #714836",
"-  c #734D3C",
";  c #794D3C",
":  c #6D503F",
">  c #74503D",
",  c #7A533E",
"<  c #744E40",
"1  c #7D4E41",
"2  c #6D5343",
"3  c #6E5849",
"4  c #735444",
"5  c #7B5444",
"6  c #745846",
"7  c #7C5846",
"8  c #7D5648",
"9  c #765B4A",
"0  c #7B5C4B",
"q  c #7F5E50",
"w  c #7B604F",
"e  c #7C6252",
"r  c #814E3B",
"t  c #814F43",
"y  c #835345",
"u  c #8A5247",
"i  c #815946",
"p  c #895844",
"a  c #86564A",
"s  c #8C564A",
"d  c #835B4C",
"f  c #8B5B4D",
"g  c #93564D",
"h  c #94594E",
"j  c #99594F",
"k  c #845F51",
"l  c #8C5D51",
"z  c #945C52",
"x  c #9D5B53",
"c  c #84614D",
"v  c #89614E",
"b  c #846454",
"n  c #8C6454",
"m  c #856856",
"M  c #896956",
"N  c #8E6659",
"B  c #846A5B",
"V  c #8B6B5B",
"C  c #906351",
"Z  c #946055",
"A  c #946354",
"S  c #956356",
"D  c #916555",
"F  c #916456",
"G  c #906656",
"H  c #936355",
"J  c #9B6157",
"K  c #9C6255",
"L  c #9D6057",
"P  c #9D6157",
"I  c #9E6057",
"U  c #9B6256",
"Y  c #906956",
"T  c #946358",
"R  c #93655A",
"E  c #976659",
"W  c #94665A",
"Q  c #9B6258",
"!  c #9A6458",
"~  c #9B655B",
"^  c #98665B",
"/  c #9F665D",
"(  c #9B645A",
")  c #936A5A",
"_  c #92695E",
"`  c #95695D",
"'  c #946B5B",
"]  c #996B5A",
"[  c #98685D",
"{  c #9A695C",
"}  c #9E685D",
"|  c #9C6B5C",
" . c #96715E",
".. c #A06158",
"X. c #A0635B",
"o. c #A1635B",
"O. c #A16B5E",
"+. c #876F60",
"@. c #916E61",
"#. c #9F6B61",
"$. c #996F63",
"%. c #9D6D62",
"&. c #8A7060",
"*. c #8F7161",
"=. c #8E7464",
"-. c #937263",
";. c #927364",
":. c #937666",
">. c #947363",
",. c #9E7062",
"<. c #9C7564",
"1. c #9B7264",
"2. c #9B7964",
"3. c #9D7865",
"4. c #917768",
"5. c #9A7568",
"6. c #9A776B",
"7. c #9E766A",
"8. c #93786A",
"9. c #967B6E",
"0. c #997B6A",
"q. c #9D7A68",
"w. c #9E7C69",
"e. c #9A7C6E",
"r. c #9C7D6E",
"t. c #9B7C6C",
"y. c #9C7F71",
"u. c #A46A62",
"i. c #A06F61",
"p. c #A07366",
"a. c #A77D72",
"s. c #9F8172",
"d. c #9D8172",
"f. c #A18475",
"g. c #A68375",
"h. c #A58679",
"j. c #A78979",
"k. c #A68C7F",
"l. c #AB8F83",
/* pixels */
"x , , @ + z x ) A &.M V 0 M 0 9 w 6 2 $ 8 c f.| x x f h x x g x ",
"% 1 4 @ 4 9 x x x N w.b 4 , 4 4 2 4 : e V V C i s b x x x x x g ",
"g f V d # g s z h n i.D z x 7 % 9 : e 8.0.:.v 8 ; 5 d g $ s 5 g ",
"h N ! Z % s x j - N <.j P x b , 9 e e B n 2.M y 0 c 4 x s 1 2 < ",
"e ;.m z x x x x z K i.x ! U n % 7 d e V ] x Q g M 3 a a x 0 k s ",
"y.^ *.x x x x ..S x a.o.) Z - 4 4 4 c *.j.0.x x s B B } x z x u.",
"5.x f z $.;.V n F x ,.P x 5 7 h x 2 7 b d.0.W d n e l x a F x X.",
"x z x f a a q.c m f P N z x s j l b i B y._ d 2 l z x 1 4 l x x ",
"x 9 j s x x N m 6 n ] z % t g ; p 4 4 B N R n f b z g g = y x x ",
"j d - s F M W 8 h h a y $ < 2 8 i % 4 a a y x n k z s x a 5 X./ ",
"6 8 a j U @.W s ) h x x y z d d i 4 a x 8 u x n a N T ^ x p M Z ",
"+ 3 q a l ( V 8 l M c s % x x u h f x x x x K u y &.h.T N c b % ",
"g g b 2 9 q a 4 7 M : = O 8 u x W R x 7 8 S c = = d U Q V N h u ",
"x x n 8 - O < o % + , 4 1 a 9 z b F b h 7 - @   X @ y x V K 5 f ",
"z x 1 5 s 8 j 8 4 $ e w 9 l s x x y 2 9 e 9 = . ; ; - , u x a F ",
"V ` d 3 4 x t s % 4 e B e m z x P b 9 e 0 d +   5 > 8 5 f | W x ",
"( <.t.0 b x x u ; x 0 b a x W I l b c 7 i A u . . - x j n 0.a x ",
"O.-.-.y.l x x g u x x S R x P x x 3.t.w.7 5 y d 7 u >.] -.M x p.",
"%.q.S N F 4 a x %.Z x x N x I z h g.T P S x ) 5.O.v ] b d.a.x x ",
"x x } [ S 7.n ) 4.4 x x w f x z j ! ..P <.<.s.k.*.0. . .6.g.x x ",
"s x x S V ` } { l 8 x x R d x R ' C r  .w.*.n w V s.r.( T ;.N f ",
"= y x x ( x O. .a x I %.W U z Q m v c '  .c h 6 N Y >.W z d 5 - ",
"2 1 x x x x } 7 f x e t.s.Q t & , , i c 7 x j y h <. .i 7 j ; e ",
"- % j x x ^ x x z 9 , b B f x * X @ 7 b , f u u z ( ) N a x h 6 ",
"- z g x x @.x %.9.l x , O s h x u & 1 2 b - a x x b x %.T x x ; ",
"a x n %./ z f #.s.x z e 2 a u x u % j f b 2 d x x j l N x x x 4 ",
"9 f p.x N b x / >.v S e 3 t z U 9 - h z d w 0 z x x l b k x l x ",
"A g h f l y T @.N v s d 4 j z N z z z % % % v x x x f 9 ; s y x ",
"x x n c 8 x l 0 d h h y n N x o./ c m 0 , - c f W x d 9 d g f x ",
"x x h ) N z 5.I z h 4 4 b C n m 8 f B 6 $ h h A p.] N 6 g N x x ",
") z X.V s x n 1.l x t 8 h ) 9 6 @ 9 4 % 5 n 1.! O.D c g x ] M x ",
"' ^ m 5 s x Q x x z x x I l.d w 3 6 9 0 4 7 j.%.P ) q x x g 8 f "
};
