/* XPM */
static char *xpm_[] = {
/* columns rows colors chars-per-pixel */
"32 32 228 2 ",
"   c #5C2D2A",
".  c #532A26",
"X  c #5C322C",
"o  c #62362E",
"O  c #693431",
"+  c #633B34",
"@  c #6C3C36",
"#  c #673935",
"$  c #753A36",
"%  c #783C38",
"&  c #672E2C",
"*  c #5E403A",
"=  c #634235",
"-  c #6C453A",
";  c #6B4A3D",
":  c #67443B",
">  c #72423B",
",  c #7B443E",
"<  c #734B3D",
"1  c #7C4B3D",
"2  c #1E2D40",
"3  c #1D3148",
"4  c #283245",
"5  c #303648",
"6  c #4B374B",
"7  c #573844",
"8  c #5F3E53",
"9  c #433E51",
"0  c #713B4C",
"q  c #4A4255",
"w  c #4D464E",
"e  c #6A4946",
"r  c #7F4640",
"t  c #724C41",
"y  c #7C4942",
"u  c #724D4B",
"i  c #6E5243",
"p  c #6F504D",
"a  c #745345",
"s  c #7C5345",
"d  c #7A544B",
"f  c #765A4A",
"g  c #79554B",
"h  c #7E4958",
"j  c #745A57",
"k  c #664A59",
"l  c #7C6052",
"z  c #78615F",
"x  c #795B6D",
"c  c #933D3A",
"v  c #83473F",
"b  c #90423E",
"n  c #824542",
"m  c #844B43",
"M  c #8B4C45",
"N  c #87494A",
"B  c #944C4C",
"V  c #9B4D48",
"C  c #825646",
"Z  c #8D5247",
"A  c #86554A",
"S  c #8C534A",
"D  c #835A4C",
"F  c #885C4D",
"G  c #815846",
"H  c #93544D",
"J  c #9B554F",
"K  c #92594E",
"L  c #9F594C",
"P  c #894D59",
"I  c #934D51",
"U  c #845B54",
"Y  c #865C5B",
"T  c #8A5857",
"R  c #955752",
"E  c #945C52",
"W  c #9B5B52",
"Q  c #995A5C",
"!  c #995B57",
"~  c #A3524D",
"^  c #AA584E",
"/  c #AA5E59",
"(  c #A65A55",
")  c #A24E49",
"_  c #84614F",
"`  c #8A6354",
"'  c #8C625C",
"]  c #88695B",
"[  c #9C6256",
"{  c #936A5C",
"}  c #9D6E5F",
"|  c #97635A",
" . c #A4635B",
".. c #AD655E",
"X. c #A7695F",
"o. c #B3635C",
"O. c #BB665E",
"+. c #805C60",
"@. c #965A64",
"#. c #8D6462",
"$. c #886866",
"%. c #926664",
"&. c #9C6464",
"*. c #9D6A65",
"=. c #9A6C6A",
"-. c #946D68",
";. c #8A726E",
":. c #927164",
">. c #98746A",
",. c #9B6777",
"<. c #887874",
"1. c #9B7673",
"2. c #9A7976",
"3. c #977B79",
"4. c #AD6561",
"5. c #AC6963",
"6. c #AE6E6C",
"7. c #A56A6A",
"8. c #B06763",
"9. c #B26965",
"0. c #BD6C64",
"q. c #B76C6A",
"w. c #A3746D",
"e. c #A6736A",
"r. c #B9786C",
"t. c #A37573",
"y. c #AC7572",
"u. c #AB7D7A",
"i. c #A67B79",
"p. c #B37572",
"a. c #B47A75",
"s. c #B37E7B",
"d. c #BA7C78",
"f. c #A46F7D",
"g. c #C3716A",
"h. c #C57471",
"j. c #A3837C",
"k. c #A68374",
"l. c #B3817D",
"z. c #BB827E",
"x. c #C1857F",
"c. c #9C8986",
"v. c #958280",
"b. c #98918E",
"n. c #AD8582",
"m. c #AB8D8B",
"M. c #A28885",
"N. c #B58583",
"B. c #BA8583",
"V. c #B48986",
"C. c #BB8D8B",
"Z. c #B68B88",
"A. c #A7928F",
"S. c #B4908D",
"D. c #BC918E",
"F. c #A19491",
"G. c #AB9995",
"H. c #BB9592",
"J. c #B59996",
"K. c #BB9995",
"L. c #BA9D9B",
"P. c #BAA29D",
"I. c #B7A29E",
"U. c #BDA5A1",
"Y. c #B9ACA8",
"T. c #BFB1AC",
"R. c #C38684",
"E. c #C58986",
"W. c #C38D89",
"Q. c #CA8D8B",
"!. c #C7918E",
"~. c #C5968E",
"^. c #CA9491",
"/. c #CB9996",
"(. c #C49C9A",
"). c #C99E9A",
"_. c #C49995",
"`. c #D39D9A",
"'. c #C3A59D",
"]. c #CAA19E",
"[. c #D1A19F",
"{. c #C3A4A1",
"}. c #CAA5A3",
"|. c #CBA9A6",
" X c #C4ACAA",
".X c #CCACAA",
"XX c #C6A9A6",
"oX c #D2A4A1",
"OX c #D2AAA7",
"+X c #D5ADAB",
"@X c #DBAEAB",
"#X c #DAA9A7",
"$X c #CBB1AD",
"%X c #C7B1AD",
"&X c #D3B3AE",
"*X c #DCB1AF",
"=X c #C3B4B1",
"-X c #CBB5B3",
";X c #CCBAB7",
":X c #D5B6B3",
">X c #DBB9B6",
",X c #DDBDBB",
"<X c #D3BBB8",
"1X c #E0BEBB",
"2X c #D2C0BC",
"3X c #DDC1BE",
"4X c #E2C2BF",
"5X c #D5C5C2",
"6X c #DDC5C2",
"7X c #D6C9C6",
"8X c #DCCBC7",
"9X c #DCCDC9",
"0X c #D7CCC8",
"qX c #DCD0CC",
"wX c #E4C6C3",
"eX c #E3C9C6",
"rX c #E4CECB",
"tX c #EACFCC",
"yX c #E5D1CD",
"uX c #EAD1CE",
"iX c #E5D4D1",
"pX c #EBD4D2",
"aX c #EDDAD7",
"sX c #EDDCD9",
"dX c #E3DBD9",
"fX c #EBE1DF",
"gX c #EFE8E6",
"hX c #EDE4E1",
/* pixels */
"H + = . o W W - @ : a ] : d a f f a X = s _ k.{ v L ,   M ,   , ",
"- 1 < o < f J O % X < f a + - ; ; f ; i ] ] ` v - ; M H S n n H ",
"Z F ] f = K Z K K s S ` K W t . i ; X = g ] _ s 1 . o H - A s H ",
"H ` [ > + C H H < ` :.W W E U = i l * e X D - C ; X = L A s i < ",
"e # j m H m J W K W *.W h 4 q 5 3 q w i U +   v D e X 1 W d a A ",
"_ o t W W , H [ ` Z o H q 5 4 4 2 4 5 w 1.g   1 A : X E W K n [ ",
":.% X S { :.] G v L Z 5.F.J.F.F.F.b.F.G.k.` o   g a A [ G F M  .",
"M E W y > Z k.Y w K O.l.aXiX0X9X0XqXqXqXj.X.( 6 P O.~ y s [ ( 4.",
"O d S , ~ g.7.f.k @.q.R.8X8X9X7X9X0XyX9X>.B h 0 ,.n M S A  ...$ ",
"y @ X @ A A x ,.P ,.@..X7X0X9X5X5X9XyX9XA.0 h P @.6 m 9.W Z  .> ",
"M n E S E %.=.7.&.@.I #X8XrX6XQ &.eXrXrXm.N B Q I x v m b v [ < ",
": S M W .....X*.OX).R.wX8XrX$.7 0 u.tXtX1XR.=.).u. Xn c Z F _ $ ",
"o.) ( ~ ..d.+X4.^.B.^.8X7X<X7 6 8 @.eX0XqXy.| ).y.U.J  .] 1 & % ",
"0.g...^ c ^ D.o.4.4.wX0X9XL.k x x h $XrX8X3XE 8.9.*.L L ` Z % l.",
"E ( v b ) 0.uXrXm.<X9XyX9Xu.5XrXtX3Xn.8XyXyX>XZ.tXrXZ 1 v 8... .",
"{ { _ f Z o.uX4XH.0X9XiX}.|.tXtXtXyX)..XyXuXrXl.3X8X[ v ..X.K O ",
"X.e.t.G E 0.tX>XoXrXrX+X/.#XwXtXtX4X+XN.>XuXuX1.;XrXg.O.L :.F $ ",
"X.:.} | c ) 4X:X[.pXtXOXQ.`.E.pXuXW.!.a.:XtXrXj.<X:Xk.X.:.` W } ",
"*.'.l.1 $ ].].>XOXrXuX*XR.x.q.@X4X6.4.d.3XuXyXC.3X~.&X} k.P.w.H ",
"l.3X<Xj.L.yXm.t.}.rXuX*XE.!.C.(.L.N.C.z.,XpXaXS.2.I.yX'.K.8X<Xl.",
"M.c.v.c.M.S.m.i.(.tXpX*X#XwXyXdXdXiX6X^.>XpXyXl.n.A.m.S.H.G.c.A.",
"T.j.T.j. Xn.6.U.K.tXpX*X@XsXhXgXgXhXsX/.1XuXuXN. X1.-..X] -X$.%X",
"<.<.z ;.&.a.6.t.(.tXtX:X:XaXsXfXhXsXaX`.,XuXuXN.1.g 1.U <.Y 1.m.",
"<.z j 3.Y 1.@.s.(.yXtX@X/.Q.OXpXpX)._._.>XtXtXz.t.T i.U n.p <.j.",
"T.v.T.v. Xm.7..X{.rXpXOXa.q.6.oX1X/ 8.d.1XeXrXB.$X2.w.<X$.=Xx =X",
"M.3.$.<.%.N.p.N.|.rXtX|.s.oXp.`.oXa.Q.p.>XyXrXC.n.N u.Q u.A 2.j.",
"<.2.%.y.&.-.! -.L.yXrXXXZ.R.a.d.s.W.R.u.-XrXiXC.a.y -.p l.I l.2.",
"2Xj.3XD.-Xm.y. XG.9XrXXX{.rXtXpXpXrXtXZ. X8XrXN.>XC.f.=X$.5Xa.6X",
"Q.B.| i.*.l.@.>.J.9XrXU.P.yXpXpXtXrXyXK.$X8X9Xl.u.4.B.| u.I d.B.",
"q.9.B =.Y %.#.%.H.rX0XU.I.iXyXyXrX9XqXH.$X8XrXB.%.e %.N *.M q.q.",
"wXE.3XS.-Xm.;.-XH.tXtXU.U.iX9X8X7X0X0XS.:XrXyXB.<Xj.;.<X7.wX9.wX",
"Q.4.N.&.3.#.u i.oXuXtXOX}.aXyXqX8XrXqXC.:XtXaXR.m.j p n.I N.V Q."
};
