/* XPM */
static char *xpm_[] = {
/* columns rows colors chars-per-pixel */
"32 32 199 2 ",
"   c #0B0B0B",
".  c #070606",
"X  c #0B0D13",
"o  c #131313",
"O  c #1B1B1C",
"+  c #11171E",
"@  c #231B16",
"#  c #221E1D",
"$  c #271B18",
"%  c #2C211C",
"&  c #24201E",
"*  c #32241B",
"=  c #051B2D",
"-  c #071727",
";  c #161C25",
":  c #171923",
">  c #051D31",
",  c #081F30",
"<  c #0A202E",
"1  c #1F2020",
"2  c #042035",
"3  c #042339",
"4  c #0A2538",
"5  c #1A2936",
"6  c #232323",
"7  c #2B2B2A",
"8  c #2C242A",
"9  c #362C27",
"0  c #352827",
"q  c #3D352C",
"w  c #392E31",
"e  c #2A383A",
"r  c #323333",
"t  c #3A3432",
"y  c #3E3439",
"u  c #3A3B3F",
"i  c #272E36",
"p  c #462A27",
"a  c #44302D",
"s  c #463B2A",
"d  c #5C3B2A",
"f  c #583624",
"g  c #44383B",
"h  c #473A35",
"j  c #563C34",
"k  c #553E38",
"l  c #643929",
"z  c #3F4434",
"x  c #4E4024",
"c  c #594929",
"v  c #5F552C",
"b  c #5F4536",
"n  c #5B443A",
"m  c #514037",
"M  c #60402F",
"N  c #7B5025",
"B  c #634432",
"V  c #644A39",
"C  c #6C4B3B",
"Z  c #68453A",
"A  c #734535",
"S  c #714936",
"D  c #734C3C",
"F  c #77493E",
"G  c #6D503F",
"H  c #74503D",
"J  c #79533F",
"K  c #7C692A",
"L  c #042941",
"P  c #032F49",
"I  c #04314C",
"U  c #033C5C",
"Y  c #033754",
"T  c #123B54",
"R  c #1A3446",
"E  c #343B42",
"W  c #293844",
"Q  c #593D41",
"!  c #22445B",
"~  c #44484A",
"^  c #504E4F",
"/  c #5C595A",
"(  c #565557",
")  c #6C4D43",
"_  c #654E44",
"`  c #754D41",
"'  c #7D4E41",
"]  c #6C5343",
"[  c #6C524D",
"{  c #6D5A4C",
"}  c #735444",
"|  c #7B5444",
" . c #725847",
".. c #7C5846",
"X. c #7D564A",
"o. c #765B4B",
"O. c #7B5C4B",
"+. c #725749",
"@. c #7F5F51",
"#. c #7D6252",
"$. c #76635D",
"%. c #6A6C6D",
"&. c #6C6764",
"*. c #796E65",
"=. c #736964",
"-. c #7D726B",
";. c #787066",
":. c #6F7073",
">. c #7E7E74",
",. c #87542E",
"<. c #814E3B",
"1. c #8D762F",
"2. c #916E3C",
"3. c #8A6A3A",
"4. c #A67538",
"5. c #814F43",
"6. c #835345",
"7. c #805946",
"8. c #86564A",
"9. c #8C564A",
"0. c #845B4B",
"q. c #8C5B4D",
"w. c #94564C",
"e. c #93594E",
"r. c #845F51",
"t. c #8C5D51",
"y. c #945C52",
"u. c #9D5B53",
"i. c #84614E",
"p. c #89614E",
"a. c #95664F",
"s. c #967B4E",
"d. c #846453",
"f. c #8C6454",
"g. c #896855",
"h. c #8F6659",
"j. c #866C5C",
"k. c #8B6B5A",
"l. c #856856",
"z. c #936355",
"x. c #9B6156",
"c. c #95655A",
"v. c #9B655A",
"b. c #936B5B",
"n. c #9B6A5C",
"m. c #906956",
"M. c #847258",
"N. c #99725C",
"B. c #A1635A",
"V. c #A16B5E",
"C. c #A57759",
"Z. c #916E61",
"A. c #9C6D62",
"S. c #8D7262",
"D. c #867165",
"F. c #947363",
"G. c #9B7264",
"H. c #9C7966",
"J. c #9C766A",
"K. c #957A6C",
"L. c #9B7C6B",
"P. c #857A75",
"I. c #9C7F71",
"U. c #A26D62",
"Y. c #A07366",
"T. c #A67961",
"R. c #A77D72",
"E. c #9D8174",
"W. c #AD8164",
"Q. c #B58266",
"!. c #B68A6B",
"~. c #A58476",
"^. c #A6897C",
"/. c #BD9476",
"(. c #B3A07B",
"). c #D38E6A",
"_. c #C69373",
"`. c #D09D75",
"'. c #CB8765",
"]. c #707E86",
"[. c #8F8884",
"{. c #A68D84",
"}. c #A3948B",
"|. c #B7A684",
" X c #A6ACAC",
".X c #AFB1A8",
"XX c #B0B6AB",
"oX c #B2BDB3",
"OX c #DEB088",
"+X c #CAA38A",
"@X c #D2B7A1",
"#X c #C9CBBE",
"$X c #B9BEC1",
"%X c #CED0C1",
"&X c #DCDECC",
"*X c #D4D5C6",
"=X c #DFE1D5",
"-X c #E6E8D3",
";X c #F6F7E0",
/* pixels */
"u.J D C B y.u.b.x.k.k.M.7.k.O.o.o. .G G ..p.~.n.u.u.8.y.u.u.w.u.",
"C ' J C } ..u.u.u.g.L.d.} J | } } } G #.j.k.f.7.8.d.u.u.u.u.u.w.",
"w.q.k.7.V w.9.e.w.g.U.f.y.u...) o.C #.K.L.F.p...<.| 7.y.C q.| w.",
"e.h.v.z.C 8.u.u.C h.G.u.x.u.d.+.=.&.*.D.f.H.d.6.O.i.| u.8.' ) ) ",
"#.F.l.y.u.u.u.u.y.u.Y.u.v.x.#.E.#X&X-X.Xk.x.u.y.f.{ X.8.u.X.d.9.",
"I.c.Z.u.u.u.u.u.c.u.R.B.b.f.P.*X#X&X%X-X}.H.u.u.q.j.g.n.u.y.u.U.",
"J.u.t.y.A.F.Z.d.z.u.A.x.u.| -.{ * t 1 7 [.K.c.r.r.#.y.u.7.z.u.B.",
"u.y.u.q.8.8.H.i.g.q.x.h.y.u.b N t ;.q & -.b.7.b 0 ) u.'  .y.u.u.",
"u.o.e.9.u.u.h.j.} g.n.q.C 5.z.&.|.|.(.M.t O.C.Q.0 ' w.w.D 6.u.u.",
"e.0.F 9.z.j.c...e.w.8.8.V ` ] y W.`.!.W O   d.a.` y.9.u.8.| B.x.",
"} X.8.y.x.b.c.q.c.e.e.u.6.8.9 = W T.~ < o   6 _.8.k.x.b.u.8.h.f.",
"B } #.8.t.v.k.7.f.h.d.<.%   6 q 1 :.~ ,.2.c :.!.T.k.^.z.f.i.d.D ",
"w.e.l.] @.@.8.| | o.$     o # 4.r r 7 z 1.3 }.a.S 0.x.x.k.h.w.9.",
"u.u.t...C b D l % . O O o x 3.K q 6 & v v - a l l A 6.u.k.x.| 0.",
"y.u.| | 9.' p o 6 O 6 o X 3 2 2 z s.K z + k S d J F D J 8.u.8.z.",
"k.b.0.+.` a O O 6 o O r >.oXE I ! *XXXY g 0.B f J H ..| 9.n.n.u.",
"v.Y.K.O.o.o o o O r 8 o g._.^ ].$X=X;X XX.z.6.d d D u.e.f.I.8.u.",
"V.F.F.I.0 o O o 6 o   $ !.V.u.{.@XQ.).'.S | 7.8.8.6.F.n.F.d.u.Y.",
"A.H.x.h.X.s #   . @ F 9.OX_.c.I.+X;.&./ w u.b.J.n.p.m.d.E.~.u.u.",
"u.u.v.Z.v.Y.f.) { } u.e.C.0.Q > = < = P < F.I.^.F.L.G.N.J.R.u.u.",
"q.u.u.z.k.b.n.n.e.X.u.u.b.0.Q U Y t 5 U 4 +.d.@.j.E.L.v.z.F.d.t.",
"S 6.u.u.B.u.U.b.8.u.x.A.b.x.R U 3 _ h Y U [ w.X.m.b.F.m.y.0.| D ",
"] ' u.u.u.u.n.| q.u.d.K.I.u.5 U 2 C m I U g u.6.e.G.G...7.e.J d.",
"C F w.u.u.v.u.u.z.O.` d.j.[ > 3 + l j - 3 7 8.5.e.v.v.f.8.u.e.} ",
"F y.e.u.u.Z.u.U.K.y.u.H b Z L U 8 A ' ; U i 8.u.u.f.u.A.c.u.u.D ",
"0.u.f.A.v.y.8.A.~.u.y.#.{ n = > k D u.; Y W 0.u.u.e.t.h.u.u.u.+.",
"..p.Y.u.h.d.u.B.G.0.y.#.} j @.0 ) ` w.a [ a O.y.u.u.t.d.r.u.q.u.",
"z.w.e.q.t.6.c.F.g.d.q.0.} y %.u 6.z.y.a O ( #.u.u.u.8.O.D q.6.u.",
"u.u.p.d.X.u.t.0.0.u.w.7.O.^ -./ X.0.l.k ( &.*.q.z.u.0.o.8.w.q.u.",
"u.u.y.b.f.y.J.v.y.q.` } d.z.z.d.X.q.d.{ C q.w.z.Y.n.g...w.c.B.u.",
"c.z.B.k.9.u.d.G.y.u.5...y.b.o. .B o. .D | f.G.x.V.b.0.w.u.n.g.e.",
"b.v.d.6.8.u.x.u.u.y.u.u.B.{.0.#. . .o.O. .7.~.G.v.z.d.e.u.e.| e."
};
