/* XPM */
static char *xpm_[] = {
/* columns rows colors chars-per-pixel */
"32 32 256 2 ",
"   c #4A0000",
".  c #390000",
"X  c #490000",
"o  c #2E0000",
"O  c #440000",
"+  c #3C0000",
"@  c #1F0000",
"#  c #2D0000",
"$  c #300000",
"%  c #4D0000",
"&  c #3F0000",
"*  c #6B0000",
"=  c #600000",
"-  c #460000",
";  c #330000",
":  c #1A0000",
">  c #1D0000",
",  c #540000",
"<  c #3A0000",
"1  c #170000",
"2  c #140000",
"3  c #470000",
"4  c #580000",
"5  c #280000",
"6  c #320000",
"7  c #4B0000",
"8  c #4C0000",
"9  c #560000",
"0  c #3D0000",
"q  c #2A0000",
"w  c #1E0000",
"e  c #1B0000",
"r  c #5A0000",
"t  c #310000",
"y  c #2B0000",
"u  c #5F0000",
"i  c #570000",
"p  c #4F0000",
"a  c #340000",
"s  c #450000",
"d  c #180000",
"f  c #3B0000",
"g  c #430000",
"h  c #1C0000",
"j  c #3E0000",
"k  c #190000",
"l  c #410000",
"z  c #5D0000",
"x  c #650000",
"c  c #530000",
"v  c #630000",
"b  c #2C0000",
"n  c #520000",
"m  c #230000",
"M  c #130000",
"N  c #270000",
"B  c #550000",
"V  c #2F0000",
"C  c #480000",
"Z  c #380000",
"A  c #240000",
"S  c #5C0000",
"D  c #510000",
"F  c #610000",
"G  c #740000",
"H  c #420000",
"J  c #100000",
"K  c #200000",
"L  c #4E0000",
"P  c #5B0000",
"I  c #290000",
"U  c #590000",
"Y  c #7E0000",
"T  c #210000",
"R  c #500000",
"E  c #350000",
"W  c #400000",
"Q  c #220000",
"!  c #250000",
"~  c #360000",
"^  c #260000",
"/  c #370000",
"(  c #160000",
")  c #680000",
"_  c #720000",
"`  c #640000",
"'  c #690000",
"]  c #6F0000",
"[  c #5E0000",
"{  c #620000",
"}  c #670000",
"|  c #6C0000",
" . c #710000",
".. c #660000",
"X. c #150000",
"o. c #110000",
"O. c #120000",
"+. c #700000",
"@. c #6A0000",
"#. c #7A0000",
"$. c #6E0000",
"%. c #6D0000",
"&. c #750000",
"*. c #0E0000",
"=. c #0F0000",
"-. c black",
";. c black",
":. c black",
">. c black",
",. c black",
"<. c black",
"1. c black",
"2. c black",
"3. c black",
"4. c black",
"5. c black",
"6. c black",
"7. c black",
"8. c black",
"9. c black",
"0. c black",
"q. c black",
"w. c black",
"e. c black",
"r. c black",
"t. c black",
"y. c black",
"u. c black",
"i. c black",
"p. c black",
"a. c black",
"s. c black",
"d. c black",
"f. c black",
"g. c black",
"h. c black",
"j. c black",
"k. c black",
"l. c black",
"z. c black",
"x. c black",
"c. c black",
"v. c black",
"b. c black",
"n. c black",
"m. c black",
"M. c black",
"N. c black",
"B. c black",
"V. c black",
"C. c black",
"Z. c black",
"A. c black",
"S. c black",
"D. c black",
"F. c black",
"G. c black",
"H. c black",
"J. c black",
"K. c black",
"L. c black",
"P. c black",
"I. c black",
"U. c black",
"Y. c black",
"T. c black",
"R. c black",
"E. c black",
"W. c black",
"Q. c black",
"!. c black",
"~. c black",
"^. c black",
"/. c black",
"(. c black",
"). c black",
"_. c black",
"`. c black",
"'. c black",
"]. c black",
"[. c black",
"{. c black",
"}. c black",
"|. c black",
" X c black",
".X c black",
"XX c black",
"oX c black",
"OX c black",
"+X c black",
"@X c black",
"#X c black",
"$X c black",
"%X c black",
"&X c black",
"*X c black",
"=X c black",
"-X c black",
";X c black",
":X c black",
">X c black",
",X c black",
"<X c black",
"1X c black",
"2X c black",
"3X c black",
"4X c black",
"5X c black",
"6X c black",
"7X c black",
"8X c black",
"9X c black",
"0X c black",
"qX c black",
"wX c black",
"eX c black",
"rX c black",
"tX c black",
"yX c black",
"uX c black",
"iX c black",
"pX c black",
"aX c black",
"sX c black",
"dX c black",
"fX c black",
"gX c black",
"hX c black",
"jX c black",
"kX c black",
"lX c black",
"zX c black",
"xX c black",
"cX c black",
"vX c black",
"bX c black",
"nX c black",
"mX c black",
"MX c black",
"NX c black",
"BX c black",
"VX c black",
"CX c black",
"ZX c black",
"AX c black",
"SX c black",
"DX c black",
"FX c black",
"GX c black",
"HX c black",
"JX c black",
"KX c black",
"LX c black",
"PX c black",
"IX c black",
"UX c black",
/* pixels */
"  . X o O + @ # $ % & * = - ; X $ : > , # - < 1 2 2 @ 3 4 5 2 6 ",
"7 8   o 9 0 q w e r X t y u i p   a 8 s d f g h h w & , i j k l ",
"z x c t s x v b b r 3 d ; n O j m M N n c 8 B 3 w V 7   C , Z A ",
"O - 8 o o S D 6 y F r G % + 1 h N d & c H O 7 V J > r q K L + H ",
"+ C r Z f P P 3 I U Y , K : T m w 5 B q . j y H k m D R g w T < ",
"+ n = f y E T a W + P r b Q j W f E > 1 f O ! j w : % e - Q b l ",
"R P s # o q w q < A O . 3 * H K u S ~ 6 ; ~ ^ h > / 0 ( - w q 4 ",
"7 W Q e K h . X % j N ! a 4 S W p o A E 8 D # w : # f 6 ) E b i ",
"_ ) b k 1 d 8 ` l B H Q m I U = X m V 0 ' ] x , h ( D ) * B o 0 ",
"F [ 3 H   H x i v 4 { / 5 / B < X l 0 X } | | U f ~ c 9 l Z J T ",
" ., y - ..v 9 0 ) D | z p 4 X L ~ p ' | ) 0 z X i S Z ; 5 N y C ",
"U ^ K < u 9 $ m N ~ ` G O - R - X.; c U u  .} 6 I   g n H j - } ",
"^ J I [ I o 6 I m C < [ r { s C : : 6 n } S l h ( I D [ c F z V ",
"k 2 m 0 C x v 3 $ W E y l a T o ( 2 o.< r ! > t d ; y s R } X O.",
"+ q ! @ s U 4 6 $ ; h : K 2 T e p o e - q m A Z + - c L H c R m ",
"9 R f ^ M b F f < Q 1 # H ( $ 5 Z T $ R C y K g 3 Z g 4 = H V z ",
"b o T O.M h b ^ X.o L & / Q p I I ^ l % O a , c   R 4 + ; ^   P ",
"9 y ~ M @ q ~ z 0 c 4 z , , L o U 3 z i # d g ` 6 7 o h Z 5 b s ",
"+.~ g ^ @ C u - S F @.#.u t K X.Z , & w X.T { 7 o + h : Z & T E ",
"+.  W m ~ p C @ p 4 [ n 0 k 1 ( I | r V E 7 X 7 % 3 E ~ @ q g g ",
"v } j 6 $ , q 2 s ..  ^ k m K W b U C ! 9 c j X ' < b a w h p - ",
"F S s y H { $ : j 4 I d ^ B S 4 X # s D n 7 H [ _ o d < s A V g ",
"p S  .G   ! l d ! ` j 1 X.~ s [ $.+ R _ ` W D } x s / S n g h k ",
"W # i | T 1 0 - 7 I + K M q q % ` v %.] U   f u S l ~ R T L @ X.",
"t K C % @ j C n , c n g / u c F 9 . 0 } & H C A j O ; 8 n } % - ",
"P n R g g # h @ ; - n : q c C P S : ~ } 6 ^   $ H 9 4 } 7 H R u ",
"&.W d Q & # *.Q m y Z ! # 0 z s ; 7 U g ..< j & I @ s ' t K b + ",
"' w *.J Q L / / d Q K M 6 m 3 A e T + s z I e A k b O P 6 V C % ",
"- : =.d a - b 0 .   q e f w w X d O.A t # : ( O 3 n y y - s i X ",
"p X.o.0 r j I 3 v [ U q A k k C : ( f o T j / u l - V N I h O 3 ",
"$ 0 ; P %.$.f P P p % @ Q ; b n + & i g . y f O Q $ . Z 3 ; H v ",
"X P | + s ) F - T R j D 7 h > s # q A E 7 W j T O.: A & i a t 9 "
};
